<?xml version="1.0" encoding="UTF-8" standalone="no" ?>
<!DOCTYPE svg PUBLIC "-//W3C//DTD SVG 1.1//EN" "http://www.w3.org/Graphics/SVG/1.1/DTD/svg11.dtd">
<svg xmlns="http://www.w3.org/2000/svg" xmlns:xlink="http://www.w3.org/1999/xlink" version="1.1" width="1080" height="1080" viewBox="0 0 1080 1080" xml:space="preserve">
<desc>Created with Fabric.js 5.2.4</desc>
<defs>
</defs>
<g transform="matrix(1 0 0 1 540 540)" id="ce5bbe68-1d1b-4252-9f9e-b7757c8df133"  >
<rect style="stroke: none; stroke-width: 1; stroke-dasharray: none; stroke-linecap: butt; stroke-dashoffset: 0; stroke-linejoin: miter; stroke-miterlimit: 4; fill: rgb(255,255,255); fill-rule: nonzero; opacity: 1; visibility: hidden;" vector-effect="non-scaling-stroke"  x="-540" y="-540" rx="0" ry="0" width="1080" height="1080" />
</g>
<g transform="matrix(1 0 0 1 540 540)" id="cff5e4eb-f4c0-44aa-b776-cc5a33ef14a5"  >
</g>
<g transform="matrix(1 0 0 1 540.5 540.5)" id="Tracciato"  >
<path style="stroke: rgb(225,134,255); stroke-width: 1; stroke-dasharray: none; stroke-linecap: butt; stroke-dashoffset: 0; stroke-linejoin: miter; stroke-miterlimit: 4; fill: rgb(255,255,255); fill-rule: nonzero; opacity: 1;" vector-effect="non-scaling-stroke"  transform=" translate(-431.51, -26.13)" d="M 22.72 42 C 18.69 42 15.77 40.54 13.97 37.62 C 12.18 34.7 11.88 30.28 13.06 24.36 C 14.06 19.39 16.1 15.25 19.17 11.92 C 22.24 8.6 25.88 6.94 30.09 6.94 C 31.12 6.94 32.06 7.11 32.91 7.44 C 33.76 7.76 34.45 7.92 34.98 7.92 C 35.38 7.92 35.68 7.89 35.89 7.81 C 36.1 7.73 36.91 6.84 38.33 5.16 C 38.33 5.16 38.39 17.33 38.39 17.33 C 38.39 17.33 35.2 18.33 35.2 18.33 C 34.88 15.09 34.28 12.89 33.41 11.73 C 32.54 10.58 31.24 10 29.5 10 C 27.12 10 24.97 11.34 23.03 14.03 C 21.1 16.72 19.73 20.13 18.91 24.27 C 18.01 28.76 17.89 32.16 18.56 34.47 C 19.24 36.78 20.82 37.94 23.31 37.94 C 25.14 37.94 26.88 37.28 28.5 35.95 C 30.12 34.62 31.56 32.47 32.81 29.5 C 32.81 29.5 35.67 31.12 35.67 31.12 C 34.16 34.59 32.27 37.26 30 39.16 C 27.74 41.05 25.31 42 22.72 42 Z M 68.56 27.94 C 69.1 25.77 69.05 24.07 68.41 22.84 C 67.76 21.62 66.73 21 65.33 21 C 63.67 21 62.14 21.71 60.75 23.14 C 59.36 24.56 58.49 26.16 58.14 27.94 C 58.14 27.94 68.56 27.94 68.56 27.94 Z M 57.53 31 C 57.05 33.38 57.25 35.12 58.14 36.25 C 59.04 37.38 60.42 37.94 62.3 37.94 C 63.77 37.94 65.12 37.51 66.33 36.66 C 67.55 35.8 68.68 34.46 69.72 32.64 C 69.72 32.64 72.39 33.86 72.39 33.86 C 71.36 36.13 69.94 38.06 68.12 39.64 C 66.32 41.21 64.12 42 61.52 42 C 58.19 42 55.67 40.93 53.95 38.78 C 52.24 36.62 51.77 33.62 52.55 29.77 C 53.22 26.39 54.8 23.58 57.3 21.33 C 59.79 19.07 62.52 17.94 65.52 17.94 C 68.3 17.94 70.54 18.88 72.25 20.77 C 73.97 22.65 74.34 26.06 73.36 31 C 73.36 31 57.53 31 57.53 31 Z M 87.53 42 C 87.53 42 88.16 38.94 88.16 38.94 C 88.16 38.94 89.98 38.94 89.98 38.94 C 90.38 38.94 90.64 38.89 90.77 38.78 C 90.89 38.68 90.98 38.48 91.03 38.17 C 91.03 38.17 94.47 20.97 94.47 20.97 C 94.51 20.78 94.57 20.72 94.64 20.78 C 94.72 20.84 94.77 20.91 94.77 21 C 94.77 21 91.95 21 91.95 21 C 91.95 21 92.53 17.94 92.53 17.94 C 92.53 17.94 94.75 17.94 94.75 17.94 C 95.33 17.94 95.88 17.88 96.39 17.77 C 96.91 17.65 97.5 17.38 98.16 16.94 C 98.16 16.94 100.11 16.94 100.11 16.94 C 100.11 16.94 99.41 20.17 99.41 20.17 C 99.45 20.08 100.17 19.68 101.58 18.98 C 102.99 18.29 104.43 17.94 105.89 17.94 C 108.45 17.94 110.23 18.66 111.23 20.09 C 112.23 21.52 112.47 23.55 111.95 26.17 C 111.95 26.17 109.47 38.61 109.47 38.61 C 109.44 38.76 109.44 38.85 109.47 38.89 C 109.51 38.92 109.66 38.94 109.91 38.94 C 109.91 38.94 112.14 38.94 112.14 38.94 C 112.14 38.94 111.52 42 111.52 42 C 111.52 42 101.2 42 101.2 42 C 101.2 42 101.83 38.94 101.83 38.94 C 101.83 38.94 103.66 38.94 103.66 38.94 C 104.05 38.94 104.3 38.89 104.42 38.8 C 104.55 38.7 104.63 38.51 104.69 38.25 C 104.69 38.25 107.23 25.52 107.23 25.52 C 107.48 24.26 107.45 23.36 107.12 22.81 C 106.81 22.27 106.2 22 105.3 22 C 104.3 22 103.18 22.35 101.91 23.05 C 100.64 23.73 99.46 24.67 98.34 25.84 C 98.34 25.84 95.78 38.66 95.78 38.66 C 95.75 38.77 95.75 38.85 95.78 38.89 C 95.82 38.92 95.97 38.94 96.23 38.94 C 96.23 38.94 98.47 38.94 98.47 38.94 C 98.47 38.94 97.84 42 97.84 42 C 97.84 42 87.53 42 87.53 42 Z M 133.33 24.69 C 133.77 22.49 134.94 20.82 136.84 19.67 C 138.76 18.52 140.85 17.94 143.12 17.94 C 144.41 17.94 145.55 18.11 146.53 18.44 C 147.51 18.76 148.13 18.92 148.41 18.92 C 148.66 18.92 148.86 18.89 149.03 18.81 C 149.21 18.73 150.12 17.97 151.78 16.53 C 151.78 16.53 150.92 26.66 150.92 26.66 C 150.92 26.66 147.83 27.17 147.83 27.17 C 147.63 24.82 147.11 23.2 146.28 22.33 C 145.46 21.45 144.41 21 143.14 21 C 141.63 21 140.43 21.27 139.53 21.8 C 138.64 22.32 138.11 23.01 137.94 23.88 C 137.78 24.66 137.8 25.23 138 25.58 C 138.21 25.92 138.76 26.2 139.66 26.41 C 140.51 26.81 141.58 27.24 142.86 27.69 C 144.14 28.12 145.34 28.61 146.45 29.14 C 147.57 29.75 148.46 30.56 149.14 31.58 C 149.82 32.59 150.02 33.75 149.77 35.05 C 149.32 37.23 148.2 38.95 146.42 40.17 C 144.64 41.39 142.34 42 139.53 42 C 137.7 42 136.39 41.84 135.61 41.52 C 134.83 41.18 134.24 41.02 133.86 41.02 C 133.6 41.02 133.25 41.11 132.83 41.28 C 132.41 41.45 131.37 41.91 129.7 42.66 C 129.7 42.66 130.77 33.27 130.77 33.27 C 130.77 33.27 133.94 32.77 133.94 32.77 C 133.94 35.27 134.38 36.92 135.27 37.73 C 136.16 38.54 137.65 38.94 139.73 38.94 C 141.37 38.94 142.63 38.68 143.52 38.16 C 144.41 37.62 144.96 36.86 145.16 35.86 C 145.28 35.23 145.2 34.73 144.92 34.33 C 144.65 33.92 144.37 33.64 144.08 33.47 C 142.91 32.98 141.6 32.45 140.14 31.88 C 138.69 31.3 137.42 30.76 136.33 30.23 C 135.05 29.61 134.16 28.81 133.69 27.83 C 133.22 26.85 133.1 25.8 133.33 24.69 Z M 179.2 21.56 C 179.25 21.29 179.27 21.13 179.23 21.08 C 179.21 21.03 179.08 21 178.83 21 C 178.83 21 173.47 21 173.47 21 C 173.47 21 174.05 17.94 174.05 17.94 C 174.05 17.94 176.86 17.94 176.86 17.94 C 177.99 17.94 179.06 17.88 180.06 17.75 C 181.07 17.62 182.09 17.34 183.11 16.94 C 183.11 16.94 184.95 16.94 184.95 16.94 C 184.95 16.94 180.64 38.61 180.64 38.61 C 180.61 38.76 180.61 38.85 180.64 38.89 C 180.68 38.92 180.83 38.94 181.08 38.94 C 181.08 38.94 186.44 38.94 186.44 38.94 C 186.44 38.94 185.81 42 185.81 42 C 185.81 42 169.25 42 169.25 42 C 169.25 42 169.88 38.94 169.88 38.94 C 169.88 38.94 174.83 38.94 174.83 38.94 C 175.22 38.94 175.48 38.89 175.61 38.78 C 175.73 38.68 175.82 38.48 175.88 38.17 C 175.88 38.17 179.2 21.56 179.2 21.56 Z M 184.53 6.94 C 185.48 6.94 186.27 7.29 186.92 8 C 187.57 8.71 187.79 9.57 187.59 10.58 C 187.43 11.48 186.93 12.27 186.11 12.97 C 185.29 13.66 184.43 14 183.53 14 C 182.54 14 181.74 13.61 181.12 12.83 C 180.52 12.04 180.3 11.15 180.48 10.17 C 180.67 9.26 181.17 8.49 181.98 7.88 C 182.8 7.25 183.64 6.94 184.53 6.94 Z M 210 17.94 C 210.56 17.94 211.13 17.87 211.72 17.73 C 212.3 17.59 212.86 17.32 213.39 16.94 C 213.39 16.94 215.38 16.94 215.38 16.94 C 215.38 16.94 214.23 19.98 214.23 19.98 C 214.05 19.65 214.47 19.23 215.47 18.72 C 216.48 18.2 217.52 17.94 218.59 17.94 C 220.01 17.94 221.12 18.26 221.92 18.89 C 222.72 19.53 222.93 20.02 222.53 20.36 C 222.56 19.78 223.11 19.23 224.17 18.72 C 225.24 18.2 226.32 17.94 227.39 17.94 C 229.4 17.94 230.68 18.54 231.22 19.75 C 231.76 20.96 231.86 22.39 231.53 24.03 C 231.53 24.03 228.58 38.81 228.58 38.81 C 228.55 38.94 228.52 38.99 228.48 38.97 C 228.46 38.95 228.59 38.94 228.86 38.94 C 228.86 38.94 230.52 38.94 230.52 38.94 C 230.52 38.94 229.89 42 229.89 42 C 229.89 42 221.14 42 221.14 42 C 221.14 42 221.77 38.94 221.77 38.94 C 221.77 38.94 223 38.94 223 38.94 C 223.32 38.94 223.52 38.91 223.61 38.86 C 223.7 38.8 223.77 38.66 223.81 38.44 C 223.81 38.44 226.66 24.19 226.66 24.19 C 226.89 23.03 226.97 22.38 226.89 22.23 C 226.8 22.08 226.64 22 226.41 22 C 225.72 22 225.02 22.26 224.33 22.78 C 223.64 23.3 223.05 24.02 222.56 24.94 C 222.56 24.94 219.78 38.84 219.78 38.84 C 219.76 38.96 219.73 39.01 219.7 38.98 C 219.67 38.95 219.79 38.94 220.06 38.94 C 220.06 38.94 221.72 38.94 221.72 38.94 C 221.72 38.94 221.09 42 221.09 42 C 221.09 42 212.34 42 212.34 42 C 212.34 42 212.97 38.94 212.97 38.94 C 212.97 38.94 214.2 38.94 214.2 38.94 C 214.52 38.94 214.73 38.91 214.81 38.86 C 214.91 38.8 214.97 38.66 215.02 38.44 C 215.02 38.44 217.86 24.19 217.86 24.19 C 218.05 23.2 218.12 22.59 218.06 22.36 C 218.01 22.12 217.86 22 217.61 22 C 216.93 22 216.24 22.26 215.55 22.78 C 214.86 23.3 214.25 24.08 213.73 25.11 C 213.73 25.11 211 38.84 211 38.84 C 210.98 38.96 210.95 39.01 210.92 38.98 C 210.89 38.95 211.01 38.94 211.28 38.94 C 211.28 38.94 212.94 38.94 212.94 38.94 C 212.94 38.94 212.31 42 212.31 42 C 212.31 42 203.56 42 203.56 42 C 203.56 42 204.19 38.94 204.19 38.94 C 204.19 38.94 205.42 38.94 205.42 38.94 C 205.73 38.94 205.94 38.91 206.03 38.84 C 206.12 38.78 206.2 38.62 206.25 38.36 C 206.25 38.36 209.72 20.97 209.72 20.97 C 209.76 20.78 209.82 20.73 209.89 20.8 C 209.96 20.86 210 20.93 210 21 C 210 21 207.97 21 207.97 21 C 207.97 21 208.55 17.94 208.55 17.94 C 208.55 17.94 210 17.94 210 17.94 Z M 263.56 27.94 C 264.1 25.77 264.05 24.07 263.41 22.84 C 262.76 21.62 261.73 21 260.33 21 C 258.67 21 257.14 21.71 255.75 23.14 C 254.36 24.56 253.49 26.16 253.14 27.94 C 253.14 27.94 263.56 27.94 263.56 27.94 Z M 252.53 31 C 252.05 33.38 252.25 35.12 253.14 36.25 C 254.04 37.38 255.42 37.94 257.3 37.94 C 258.77 37.94 260.12 37.51 261.33 36.66 C 262.55 35.8 263.68 34.46 264.72 32.64 C 264.72 32.64 267.39 33.86 267.39 33.86 C 266.36 36.13 264.94 38.06 263.12 39.64 C 261.32 41.21 259.12 42 256.52 42 C 253.19 42 250.67 40.93 248.95 38.78 C 247.24 36.62 246.77 33.62 247.55 29.77 C 248.22 26.39 249.8 23.58 252.3 21.33 C 254.79 19.07 257.52 17.94 260.52 17.94 C 263.3 17.94 265.54 18.88 267.25 20.77 C 268.97 22.65 269.34 26.06 268.36 31 C 268.36 31 252.53 31 252.53 31 Z M 282.53 42 C 282.53 42 283.16 38.94 283.16 38.94 C 283.16 38.94 284.98 38.94 284.98 38.94 C 285.38 38.94 285.64 38.89 285.77 38.78 C 285.89 38.68 285.98 38.48 286.03 38.17 C 286.03 38.17 289.47 20.97 289.47 20.97 C 289.51 20.78 289.57 20.72 289.64 20.78 C 289.72 20.84 289.77 20.91 289.77 21 C 289.77 21 286.95 21 286.95 21 C 286.95 21 287.53 17.94 287.53 17.94 C 287.53 17.94 289.75 17.94 289.75 17.94 C 290.33 17.94 290.88 17.88 291.39 17.77 C 291.91 17.65 292.5 17.38 293.16 16.94 C 293.16 16.94 295.11 16.94 295.11 16.94 C 295.11 16.94 294.41 20.17 294.41 20.17 C 294.45 20.08 295.17 19.68 296.58 18.98 C 297.99 18.29 299.43 17.94 300.89 17.94 C 303.45 17.94 305.23 18.66 306.23 20.09 C 307.23 21.52 307.47 23.55 306.95 26.17 C 306.95 26.17 304.47 38.61 304.47 38.61 C 304.44 38.76 304.44 38.85 304.47 38.89 C 304.51 38.92 304.66 38.94 304.91 38.94 C 304.91 38.94 307.14 38.94 307.14 38.94 C 307.14 38.94 306.52 42 306.52 42 C 306.52 42 296.2 42 296.2 42 C 296.2 42 296.83 38.94 296.83 38.94 C 296.83 38.94 298.66 38.94 298.66 38.94 C 299.05 38.94 299.3 38.89 299.42 38.8 C 299.55 38.7 299.63 38.51 299.69 38.25 C 299.69 38.25 302.23 25.52 302.23 25.52 C 302.48 24.26 302.45 23.36 302.12 22.81 C 301.81 22.27 301.2 22 300.3 22 C 299.3 22 298.18 22.35 296.91 23.05 C 295.64 23.73 294.46 24.67 293.34 25.84 C 293.34 25.84 290.78 38.66 290.78 38.66 C 290.75 38.77 290.75 38.85 290.78 38.89 C 290.82 38.92 290.97 38.94 291.23 38.94 C 291.23 38.94 293.47 38.94 293.47 38.94 C 293.47 38.94 292.84 42 292.84 42 C 292.84 42 282.53 42 282.53 42 Z M 335.3 34.52 C 334.99 36.02 335 36.96 335.31 37.36 C 335.63 37.75 336.28 37.94 337.25 37.94 C 338.29 37.94 339.21 37.58 340 36.86 C 340.79 36.14 341.57 34.71 342.34 32.58 C 342.34 32.58 345.12 33.81 345.12 33.81 C 344.22 36.5 343 38.54 341.48 39.92 C 339.97 41.31 338.17 42 336.08 42 C 333.75 42 332.13 41.28 331.2 39.83 C 330.29 38.37 330.1 36.26 330.66 33.5 C 330.66 33.5 333.16 21 333.16 21 C 333.16 21 327.31 21 327.31 21 C 327.31 21 327.89 17.94 327.89 17.94 C 327.89 17.94 330.31 17.94 330.31 17.94 C 331.61 17.94 332.77 17.5 333.8 16.62 C 334.82 15.74 335.64 14.3 336.28 12.3 C 336.28 12.3 337.03 9.94 337.03 9.94 C 337.03 9.94 340.22 9.94 340.22 9.94 C 340.22 9.94 338.61 17.94 338.61 17.94 C 338.61 17.94 346.41 17.94 346.41 17.94 C 346.41 17.94 345.83 21 345.83 21 C 345.83 21 338 21 338 21 C 338 21 335.3 34.52 335.3 34.52 Z M 386.11 30.17 C 385.42 33.56 383.8 36.38 381.25 38.62 C 378.7 40.88 375.86 42 372.73 42 C 369.38 42 366.88 40.79 365.23 38.38 C 363.59 35.95 363.1 33.08 363.77 29.77 C 364.36 26.78 365.91 24.06 368.44 21.61 C 370.96 19.16 373.85 17.94 377.12 17.94 C 380.63 17.94 383.16 19.22 384.7 21.78 C 386.24 24.34 386.71 27.13 386.11 30.17 Z M 368.88 30.36 C 368.26 33.41 368.39 35.61 369.27 36.94 C 370.14 38.27 371.36 38.94 372.94 38.94 C 374.85 38.94 376.52 38.17 377.92 36.62 C 379.34 35.07 380.33 32.85 380.91 29.95 C 381.52 26.88 381.4 24.62 380.55 23.17 C 379.7 21.73 378.5 21 376.94 21 C 375.39 21 373.82 21.78 372.22 23.34 C 370.61 24.9 369.5 27.23 368.88 30.36 Z M 448.05 24.48 C 446.98 29.78 446.83 33.51 447.59 35.69 C 448.36 37.86 449.55 38.94 451.14 38.94 C 453 38.94 454.74 37.86 456.36 35.7 C 457.98 33.54 459.35 29.66 460.47 24.08 C 461.38 19.62 461.59 16.16 461.11 13.7 C 460.63 11.23 459.37 10 457.33 10 C 455.46 10 453.7 11.18 452.03 13.53 C 450.36 15.88 449.04 19.53 448.05 24.48 Z M 466.2 24.58 C 465.13 29.92 463.17 34.16 460.33 37.3 C 457.49 40.43 454.36 42 450.94 42 C 447.53 42 444.98 40.35 443.28 37.05 C 441.58 33.73 441.25 29.45 442.3 24.17 C 443.32 19.09 445.22 14.95 448 11.75 C 450.79 8.54 453.97 6.94 457.53 6.94 C 461.38 6.94 464.02 8.7 465.45 12.2 C 466.9 15.71 467.15 19.84 466.2 24.58 Z M 485.02 45.94 C 485.02 45.94 487.66 45.94 487.66 45.94 C 487.66 45.94 487.03 49 487.03 49 C 487.03 49 475.94 49 475.94 49 C 475.94 49 476.56 45.94 476.56 45.94 C 476.56 45.94 478.58 45.94 478.58 45.94 C 478.97 45.94 479.23 45.88 479.36 45.77 C 479.48 45.66 479.59 45.4 479.67 44.98 C 479.67 44.98 484.36 21.55 484.36 21.55 C 484.41 21.28 484.42 21.12 484.39 21.08 C 484.37 21.03 484.23 21 483.98 21 C 483.98 21 481.56 21 481.56 21 C 481.56 21 482.14 17.94 482.14 17.94 C 482.14 17.94 484.75 17.94 484.75 17.94 C 485.33 17.94 485.88 17.88 486.39 17.77 C 486.91 17.65 487.5 17.38 488.16 16.94 C 488.16 16.94 490.11 16.94 490.11 16.94 C 490.11 16.94 489.12 20.39 489.12 20.39 C 489.05 20.17 489.69 19.71 491.05 19 C 492.41 18.29 493.83 17.94 495.3 17.94 C 498.23 17.94 500.48 18.93 502.03 20.92 C 503.58 22.91 503.95 25.93 503.14 29.98 C 502.37 33.81 500.79 36.77 498.39 38.86 C 496 40.95 493.45 42 490.72 42 C 489.11 42 487.8 41.74 486.78 41.22 C 485.76 40.7 485.25 40.34 485.27 40.14 C 485.27 40.14 484.44 45.39 484.44 45.39 C 484.38 45.63 484.39 45.78 484.47 45.84 C 484.55 45.91 484.73 45.94 485.02 45.94 Z M 486.3 36.08 C 486.58 36.98 487.05 37.68 487.72 38.19 C 488.38 38.69 489.25 38.94 490.33 38.94 C 491.87 38.94 493.36 38.23 494.8 36.8 C 496.24 35.37 497.28 33.1 497.91 29.98 C 498.48 27.12 498.5 25.07 497.97 23.84 C 497.44 22.62 496.41 22 494.91 22 C 493.91 22 492.83 22.32 491.66 22.95 C 490.48 23.58 489.38 24.54 488.34 25.84 C 488.34 25.84 486.3 36.08 486.3 36.08 Z M 536.56 27.94 C 537.1 25.77 537.05 24.07 536.41 22.84 C 535.76 21.62 534.73 21 533.33 21 C 531.67 21 530.14 21.71 528.75 23.14 C 527.36 24.56 526.49 26.16 526.14 27.94 C 526.14 27.94 536.56 27.94 536.56 27.94 Z M 525.53 31 C 525.05 33.38 525.25 35.12 526.14 36.25 C 527.04 37.38 528.42 37.94 530.3 37.94 C 531.77 37.94 533.12 37.51 534.33 36.66 C 535.55 35.8 536.68 34.46 537.72 32.64 C 537.72 32.64 540.39 33.86 540.39 33.86 C 539.36 36.13 537.94 38.06 536.12 39.64 C 534.32 41.21 532.12 42 529.52 42 C 526.19 42 523.67 40.93 521.95 38.78 C 520.24 36.62 519.77 33.62 520.55 29.77 C 521.22 26.39 522.8 23.58 525.3 21.33 C 527.79 19.07 530.52 17.94 533.52 17.94 C 536.3 17.94 538.54 18.88 540.25 20.77 C 541.97 22.65 542.34 26.06 541.36 31 C 541.36 31 525.53 31 525.53 31 Z M 570.14 21.55 C 570.18 21.5 571.12 20.88 572.97 19.7 C 574.82 18.53 576.63 17.94 578.39 17.94 C 579.97 17.94 581.18 18.34 582.02 19.16 C 582.85 19.96 583.15 20.93 582.92 22.06 C 582.75 22.91 582.38 23.61 581.78 24.17 C 581.2 24.73 580.45 25 579.53 25 C 578.53 25 577.79 24.69 577.31 24.06 C 576.83 23.43 576.77 22.69 577.14 21.84 C 577.16 21.77 577.19 21.78 577.22 21.88 C 577.25 21.96 577.18 22 577.02 22 C 576.19 22 574.97 22.59 573.34 23.75 C 571.73 24.92 570.19 26.54 568.72 28.61 C 568.72 28.61 566.72 38.66 566.72 38.66 C 566.69 38.78 566.69 38.86 566.72 38.89 C 566.76 38.92 566.91 38.94 567.16 38.94 C 567.16 38.94 572.72 38.94 572.72 38.94 C 572.72 38.94 572.09 42 572.09 42 C 572.09 42 555.53 42 555.53 42 C 555.53 42 556.16 38.94 556.16 38.94 C 556.16 38.94 560.91 38.94 560.91 38.94 C 561.31 38.94 561.58 38.89 561.7 38.78 C 561.83 38.68 561.91 38.48 561.97 38.17 C 561.97 38.17 565.3 21.56 565.3 21.56 C 565.35 21.29 565.36 21.13 565.33 21.08 C 565.3 21.03 565.17 21 564.92 21 C 564.92 21 559.95 21 559.95 21 C 559.95 21 560.53 17.94 560.53 17.94 C 560.53 17.94 562.95 17.94 562.95 17.94 C 563.82 17.94 564.85 17.84 566.06 17.66 C 567.28 17.47 568.27 17.23 569.03 16.94 C 569.03 16.94 571.05 16.94 571.05 16.94 C 571.05 16.94 570.14 21.55 570.14 21.55 Z M 614.56 27.94 C 615.1 25.77 615.05 24.07 614.41 22.84 C 613.76 21.62 612.73 21 611.33 21 C 609.67 21 608.14 21.71 606.75 23.14 C 605.36 24.56 604.49 26.16 604.14 27.94 C 604.14 27.94 614.56 27.94 614.56 27.94 Z M 603.53 31 C 603.05 33.38 603.25 35.12 604.14 36.25 C 605.04 37.38 606.42 37.94 608.3 37.94 C 609.77 37.94 611.12 37.51 612.33 36.66 C 613.55 35.8 614.68 34.46 615.72 32.64 C 615.72 32.64 618.39 33.86 618.39 33.86 C 617.36 36.13 615.94 38.06 614.12 39.64 C 612.32 41.21 610.12 42 607.52 42 C 604.19 42 601.67 40.93 599.95 38.78 C 598.24 36.62 597.77 33.62 598.55 29.77 C 599.22 26.39 600.8 23.58 603.3 21.33 C 605.79 19.07 608.52 17.94 611.52 17.94 C 614.3 17.94 616.54 18.88 618.25 20.77 C 619.97 22.65 620.34 26.06 619.36 31 C 619.36 31 603.53 31 603.53 31 Z M 678.92 10 C 678.92 10 679.55 6.94 679.55 6.94 C 679.55 6.94 700.44 6.94 700.44 6.94 C 700.44 6.94 701.5 15.27 701.5 15.27 C 701.5 15.27 698.66 16.31 698.66 16.31 C 697.84 13.78 697.02 12.1 696.2 11.27 C 695.39 10.42 694.41 10 693.28 10 C 693.28 10 687.81 10 687.81 10 C 687.51 10 687.27 10.06 687.09 10.19 C 686.91 10.31 686.8 10.51 686.75 10.77 C 686.75 10.77 684.52 21.94 684.52 21.94 C 684.52 21.94 688.92 21.94 688.92 21.94 C 689.96 21.94 690.74 21.7 691.27 21.23 C 691.8 20.76 692.16 19.98 692.38 18.92 C 692.38 18.92 692.78 16.94 692.78 16.94 C 692.78 16.94 696.06 16.94 696.06 16.94 C 696.06 16.94 693.44 30 693.44 30 C 693.44 30 690.14 30 690.14 30 C 690.14 30 690.56 28.03 690.56 28.03 C 690.78 26.93 690.75 26.15 690.48 25.69 C 690.21 25.23 689.62 25 688.72 25 C 688.72 25 683.89 25 683.89 25 C 683.89 25 681.17 38.62 681.17 38.62 C 681.14 38.76 681.14 38.85 681.17 38.89 C 681.21 38.92 681.36 38.94 681.62 38.94 C 681.62 38.94 686.7 38.94 686.7 38.94 C 688.43 38.94 690.02 38.43 691.45 37.41 C 692.89 36.38 694.35 34.45 695.83 31.64 C 695.83 31.64 698.58 32.84 698.58 32.84 C 698.58 32.84 694.19 42 694.19 42 C 694.19 42 672.34 42 672.34 42 C 672.34 42 672.97 38.94 672.97 38.94 C 672.97 38.94 674.98 38.94 674.98 38.94 C 675.38 38.94 675.64 38.89 675.77 38.78 C 675.89 38.68 675.98 38.48 676.03 38.2 C 676.03 38.2 681.59 10.33 681.59 10.33 C 681.63 10.12 681.65 10.02 681.64 10.02 C 681.64 10.01 681.48 10 681.17 10 C 681.17 10 678.92 10 678.92 10 Z M 731.73 22.98 C 731.48 22.39 730.98 21.91 730.22 21.55 C 729.46 21.18 728.63 21 727.75 21 C 726.11 21 724.64 21.81 723.33 23.42 C 722.02 25.04 721.09 27.25 720.53 30.06 C 719.95 32.94 719.95 34.97 720.55 36.16 C 721.15 37.34 722.21 37.94 723.73 37.94 C 724.93 37.94 726.03 37.55 727.03 36.77 C 728.03 35.98 728.92 34.79 729.7 33.22 C 729.7 33.22 731.73 22.98 731.73 22.98 Z M 722.77 42 C 720.07 42 717.96 40.94 716.45 38.81 C 714.94 36.68 714.58 33.66 715.36 29.77 C 716.08 26.2 717.63 23.34 720.03 21.19 C 722.44 19.02 725 17.94 727.73 17.94 C 728.92 17.94 730.11 18.2 731.31 18.73 C 732.51 19.26 733.02 19.7 732.84 20.06 C 732.84 20.06 734.12 11.08 734.12 11.08 C 734.24 10.54 734.27 10.23 734.23 10.14 C 734.19 10.05 734.06 10 733.84 10 C 733.84 10 731.02 10 731.02 10 C 731.02 10 731.64 6.94 731.64 6.94 C 731.64 6.94 734.62 6.94 734.62 6.94 C 735.12 6.94 735.68 6.8 736.28 6.52 C 736.89 6.23 738.31 5.15 740.53 3.25 C 740.53 3.25 733.7 37.39 733.7 37.39 C 733.63 37.73 733.6 37.91 733.61 37.92 C 733.62 37.93 733.71 37.94 733.89 37.94 C 733.89 37.94 736.52 37.94 736.52 37.94 C 736.52 37.94 735.94 41 735.94 41 C 735.94 41 733.91 41 733.91 41 C 733.46 41 732.88 41.08 732.19 41.23 C 731.5 41.38 730.7 41.64 729.8 42 C 729.8 42 727.95 42 727.95 42 C 727.95 42 729.06 39.14 729.06 39.14 C 729.25 39.48 728.64 40.04 727.25 40.83 C 725.86 41.61 724.37 42 722.77 42 Z M 764.2 21.56 C 764.25 21.29 764.27 21.13 764.23 21.08 C 764.21 21.03 764.08 21 763.83 21 C 763.83 21 758.47 21 758.47 21 C 758.47 21 759.05 17.94 759.05 17.94 C 759.05 17.94 761.86 17.94 761.86 17.94 C 762.99 17.94 764.06 17.88 765.06 17.75 C 766.07 17.62 767.09 17.34 768.11 16.94 C 768.11 16.94 769.95 16.94 769.95 16.94 C 769.95 16.94 765.64 38.61 765.64 38.61 C 765.61 38.76 765.61 38.85 765.64 38.89 C 765.68 38.92 765.83 38.94 766.08 38.94 C 766.08 38.94 771.44 38.94 771.44 38.94 C 771.44 38.94 770.81 42 770.81 42 C 770.81 42 754.25 42 754.25 42 C 754.25 42 754.88 38.94 754.88 38.94 C 754.88 38.94 759.83 38.94 759.83 38.94 C 760.22 38.94 760.48 38.89 760.61 38.78 C 760.73 38.68 760.82 38.48 760.88 38.17 C 760.88 38.17 764.2 21.56 764.2 21.56 Z M 769.53 6.94 C 770.48 6.94 771.27 7.29 771.92 8 C 772.57 8.71 772.79 9.57 772.59 10.58 C 772.43 11.48 771.93 12.27 771.11 12.97 C 770.29 13.66 769.43 14 768.53 14 C 767.54 14 766.74 13.61 766.12 12.83 C 765.52 12.04 765.3 11.15 765.48 10.17 C 765.67 9.26 766.17 8.49 766.98 7.88 C 767.8 7.25 768.64 6.94 769.53 6.94 Z M 803.06 6.94 C 804.12 6.94 805.16 6.79 806.17 6.48 C 807.19 6.17 808.27 5.66 809.42 4.94 C 809.42 4.94 811.38 4.94 811.38 4.94 C 811.38 4.94 804.64 38.59 804.64 38.59 C 804.61 38.75 804.61 38.85 804.64 38.89 C 804.68 38.92 804.83 38.94 805.08 38.94 C 805.08 38.94 810.83 38.94 810.83 38.94 C 810.83 38.94 810.2 42 810.2 42 C 810.2 42 792.86 42 792.86 42 C 792.86 42 793.48 38.94 793.48 38.94 C 793.48 38.94 798.83 38.94 798.83 38.94 C 799.22 38.94 799.48 38.89 799.61 38.78 C 799.73 38.68 799.82 38.48 799.88 38.2 C 799.88 38.2 805.44 10.33 805.44 10.33 C 805.48 10.12 805.49 10.02 805.48 10.02 C 805.48 10.01 805.32 10 805 10 C 805 10 799.44 10 799.44 10 C 799.44 10 800.06 6.94 800.06 6.94 C 800.06 6.94 803.06 6.94 803.06 6.94 Z M 842.2 21.56 C 842.25 21.29 842.27 21.13 842.23 21.08 C 842.21 21.03 842.08 21 841.83 21 C 841.83 21 836.47 21 836.47 21 C 836.47 21 837.05 17.94 837.05 17.94 C 837.05 17.94 839.86 17.94 839.86 17.94 C 840.99 17.94 842.06 17.88 843.06 17.75 C 844.07 17.62 845.09 17.34 846.11 16.94 C 846.11 16.94 847.95 16.94 847.95 16.94 C 847.95 16.94 843.64 38.61 843.64 38.61 C 843.61 38.76 843.61 38.85 843.64 38.89 C 843.68 38.92 843.83 38.94 844.08 38.94 C 844.08 38.94 849.44 38.94 849.44 38.94 C 849.44 38.94 848.81 42 848.81 42 C 848.81 42 832.25 42 832.25 42 C 832.25 42 832.88 38.94 832.88 38.94 C 832.88 38.94 837.83 38.94 837.83 38.94 C 838.22 38.94 838.48 38.89 838.61 38.78 C 838.73 38.68 838.82 38.48 838.88 38.17 C 838.88 38.17 842.2 21.56 842.2 21.56 Z M 847.53 6.94 C 848.48 6.94 849.27 7.29 849.92 8 C 850.57 8.71 850.79 9.57 850.59 10.58 C 850.43 11.48 849.93 12.27 849.11 12.97 C 848.29 13.66 847.43 14 846.53 14 C 845.54 14 844.74 13.61 844.12 12.83 C 843.52 12.04 843.3 11.15 843.48 10.17 C 843.67 9.26 844.17 8.49 844.98 7.88 C 845.8 7.25 846.64 6.94 847.53 6.94 Z" stroke-linecap="round" />
</g>
</svg>