<svg xml:space="preserve" viewBox="219.4668 511.34976 656.6292000000001 56.140344" version="1.1" xmlns:xlink="http://www.w3.org/1999/xlink" xmlns="http://www.w3.org/2000/svg" style="max-height: 500px" width="656.6292000000001" height="56.140344">
<desc>Created with Fabric.js 5.2.4</desc>
<defs>
</defs>
<g id="fe553173-38af-4eda-828e-fa5da96868e3" transform="matrix(1 0 0 1 540 540)">
<rect height="1080" width="1080" ry="0" rx="0" y="-540" x="-540" style="stroke: none; stroke-width: 1; stroke-dasharray: none; stroke-linecap: butt; stroke-dashoffset: 0; stroke-linejoin: miter; stroke-miterlimit: 4; fill: rgb(255,255,255); fill-rule: nonzero; opacity: 1; visibility: hidden;"/>
</g>
<g id="9ccebf18-6f10-4acb-90ab-eb820776771a" transform="matrix(1 0 0 1 540 540)">
</g>
<g id="Tracciato" transform="matrix(1 0 0 1 540.5 540.5)">
<path stroke-linecap="round" d="M 17.72 42 C 13.69 42 10.77 40.54 8.97 37.62 C 7.18 34.7 6.88 30.28 8.06 24.36 C 9.06 19.39 11.1 15.25 14.17 11.92 C 17.24 8.6 20.88 6.94 25.09 6.94 C 26.12 6.94 27.06 7.11 27.91 7.44 C 28.76 7.76 29.45 7.92 29.98 7.92 C 30.38 7.92 30.68 7.89 30.89 7.81 C 31.1 7.73 31.91 6.84 33.33 5.16 C 33.33 5.16 33.39 17.33 33.39 17.33 C 33.39 17.33 30.2 18.33 30.2 18.33 C 29.88 15.09 29.28 12.89 28.41 11.73 C 27.54 10.58 26.24 10 24.5 10 C 22.12 10 19.97 11.34 18.03 14.03 C 16.1 16.72 14.73 20.13 13.91 24.27 C 13.01 28.76 12.89 32.16 13.56 34.47 C 14.24 36.78 15.82 37.94 18.31 37.94 C 20.14 37.94 21.88 37.28 23.5 35.95 C 25.12 34.62 26.56 32.47 27.81 29.5 C 27.81 29.5 30.67 31.12 30.67 31.12 C 29.16 34.59 27.27 37.26 25 39.16 C 22.74 41.05 20.31 42 17.72 42 Z M 53.56 27.94 C 54.1 25.77 54.05 24.07 53.41 22.84 C 52.76 21.62 51.73 21 50.33 21 C 48.67 21 47.14 21.71 45.75 23.14 C 44.36 24.56 43.49 26.16 43.14 27.94 C 43.14 27.94 53.56 27.94 53.56 27.94 Z M 42.53 31 C 42.05 33.38 42.25 35.12 43.14 36.25 C 44.04 37.38 45.42 37.94 47.3 37.94 C 48.77 37.94 50.12 37.51 51.33 36.66 C 52.55 35.8 53.68 34.46 54.72 32.64 C 54.72 32.64 57.39 33.86 57.39 33.86 C 56.36 36.13 54.94 38.06 53.12 39.64 C 51.32 41.21 49.12 42 46.52 42 C 43.19 42 40.67 40.93 38.95 38.78 C 37.24 36.62 36.77 33.62 37.55 29.77 C 38.22 26.39 39.8 23.58 42.3 21.33 C 44.79 19.07 47.52 17.94 50.52 17.94 C 53.3 17.94 55.54 18.88 57.25 20.77 C 58.97 22.65 59.34 26.06 58.36 31 C 58.36 31 42.53 31 42.53 31 Z M 62.53 42 C 62.53 42 63.16 38.94 63.16 38.94 C 63.16 38.94 64.98 38.94 64.98 38.94 C 65.38 38.94 65.64 38.89 65.77 38.78 C 65.89 38.68 65.98 38.48 66.03 38.17 C 66.03 38.17 69.47 20.97 69.47 20.97 C 69.51 20.78 69.57 20.72 69.64 20.78 C 69.72 20.84 69.77 20.91 69.77 21 C 69.77 21 66.95 21 66.95 21 C 66.95 21 67.53 17.94 67.53 17.94 C 67.53 17.94 69.75 17.94 69.75 17.94 C 70.33 17.94 70.88 17.88 71.39 17.77 C 71.91 17.65 72.5 17.38 73.16 16.94 C 73.16 16.94 75.11 16.94 75.11 16.94 C 75.11 16.94 74.41 20.17 74.41 20.17 C 74.45 20.08 75.17 19.68 76.58 18.98 C 77.99 18.29 79.43 17.94 80.89 17.94 C 83.45 17.94 85.23 18.66 86.23 20.09 C 87.23 21.52 87.47 23.55 86.95 26.17 C 86.95 26.17 84.47 38.61 84.47 38.61 C 84.44 38.76 84.44 38.85 84.47 38.89 C 84.51 38.92 84.66 38.94 84.91 38.94 C 84.91 38.94 87.14 38.94 87.14 38.94 C 87.14 38.94 86.52 42 86.52 42 C 86.52 42 76.2 42 76.2 42 C 76.2 42 76.83 38.94 76.83 38.94 C 76.83 38.94 78.66 38.94 78.66 38.94 C 79.05 38.94 79.3 38.89 79.42 38.8 C 79.55 38.7 79.63 38.51 79.69 38.25 C 79.69 38.25 82.23 25.52 82.23 25.52 C 82.48 24.26 82.45 23.36 82.12 22.81 C 81.81 22.27 81.2 22 80.3 22 C 79.3 22 78.18 22.35 76.91 23.05 C 75.64 23.73 74.46 24.67 73.34 25.84 C 73.34 25.84 70.78 38.66 70.78 38.66 C 70.75 38.77 70.75 38.85 70.78 38.89 C 70.82 38.92 70.97 38.94 71.23 38.94 C 71.23 38.94 73.47 38.94 73.47 38.94 C 73.47 38.94 72.84 42 72.84 42 C 72.84 42 62.53 42 62.53 42 Z M 98.33 24.69 C 98.77 22.49 99.94 20.82 101.84 19.67 C 103.76 18.52 105.85 17.94 108.12 17.94 C 109.41 17.94 110.55 18.11 111.53 18.44 C 112.51 18.76 113.13 18.92 113.41 18.92 C 113.66 18.92 113.86 18.89 114.03 18.81 C 114.21 18.73 115.12 17.97 116.78 16.53 C 116.78 16.53 115.92 26.66 115.92 26.66 C 115.92 26.66 112.83 27.17 112.83 27.17 C 112.63 24.82 112.11 23.2 111.28 22.33 C 110.46 21.45 109.41 21 108.14 21 C 106.63 21 105.43 21.27 104.53 21.8 C 103.64 22.32 103.11 23.01 102.94 23.88 C 102.78 24.66 102.8 25.23 103 25.58 C 103.21 25.92 103.76 26.2 104.66 26.41 C 105.51 26.81 106.58 27.24 107.86 27.69 C 109.14 28.12 110.34 28.61 111.45 29.14 C 112.57 29.75 113.46 30.56 114.14 31.58 C 114.82 32.59 115.02 33.75 114.77 35.05 C 114.32 37.23 113.2 38.95 111.42 40.17 C 109.64 41.39 107.34 42 104.53 42 C 102.7 42 101.39 41.84 100.61 41.52 C 99.83 41.18 99.24 41.02 98.86 41.02 C 98.6 41.02 98.25 41.11 97.83 41.28 C 97.41 41.45 96.37 41.91 94.7 42.66 C 94.7 42.66 95.77 33.27 95.77 33.27 C 95.77 33.27 98.94 32.77 98.94 32.77 C 98.94 35.27 99.38 36.92 100.27 37.73 C 101.16 38.54 102.65 38.94 104.73 38.94 C 106.37 38.94 107.63 38.68 108.52 38.16 C 109.41 37.62 109.96 36.86 110.16 35.86 C 110.28 35.23 110.2 34.73 109.92 34.33 C 109.65 33.92 109.37 33.64 109.08 33.47 C 107.91 32.98 106.6 32.45 105.14 31.88 C 103.69 31.3 102.42 30.76 101.33 30.23 C 100.05 29.61 99.16 28.81 98.69 27.83 C 98.22 26.85 98.1 25.8 98.33 24.69 Z M 134.2 21.56 C 134.25 21.29 134.27 21.13 134.23 21.08 C 134.21 21.03 134.08 21 133.83 21 C 133.83 21 128.47 21 128.47 21 C 128.47 21 129.05 17.94 129.05 17.94 C 129.05 17.94 131.86 17.94 131.86 17.94 C 132.99 17.94 134.06 17.88 135.06 17.75 C 136.07 17.62 137.09 17.34 138.11 16.94 C 138.11 16.94 139.95 16.94 139.95 16.94 C 139.95 16.94 135.64 38.61 135.64 38.61 C 135.61 38.76 135.61 38.85 135.64 38.89 C 135.68 38.92 135.83 38.94 136.08 38.94 C 136.08 38.94 141.44 38.94 141.44 38.94 C 141.44 38.94 140.81 42 140.81 42 C 140.81 42 124.25 42 124.25 42 C 124.25 42 124.88 38.94 124.88 38.94 C 124.88 38.94 129.83 38.94 129.83 38.94 C 130.22 38.94 130.48 38.89 130.61 38.78 C 130.73 38.68 130.82 38.48 130.88 38.17 C 130.88 38.17 134.2 21.56 134.2 21.56 Z M 139.53 6.94 C 140.48 6.94 141.27 7.29 141.92 8 C 142.57 8.71 142.79 9.57 142.59 10.58 C 142.43 11.48 141.93 12.27 141.11 12.97 C 140.29 13.66 139.43 14 138.53 14 C 137.54 14 136.74 13.61 136.12 12.83 C 135.52 12.04 135.3 11.15 135.48 10.17 C 135.67 9.26 136.17 8.49 136.98 7.88 C 137.8 7.25 138.64 6.94 139.53 6.94 Z M 155 17.94 C 155.56 17.94 156.13 17.87 156.72 17.73 C 157.3 17.59 157.86 17.32 158.39 16.94 C 158.39 16.94 160.38 16.94 160.38 16.94 C 160.38 16.94 159.23 19.98 159.23 19.98 C 159.05 19.65 159.47 19.23 160.47 18.72 C 161.48 18.2 162.52 17.94 163.59 17.94 C 165.01 17.94 166.12 18.26 166.92 18.89 C 167.72 19.53 167.93 20.02 167.53 20.36 C 167.56 19.78 168.11 19.23 169.17 18.72 C 170.24 18.2 171.32 17.94 172.39 17.94 C 174.4 17.94 175.68 18.54 176.22 19.75 C 176.76 20.96 176.86 22.39 176.53 24.03 C 176.53 24.03 173.58 38.81 173.58 38.81 C 173.55 38.94 173.52 38.99 173.48 38.97 C 173.46 38.95 173.59 38.94 173.86 38.94 C 173.86 38.94 175.52 38.94 175.52 38.94 C 175.52 38.94 174.89 42 174.89 42 C 174.89 42 166.14 42 166.14 42 C 166.14 42 166.77 38.94 166.77 38.94 C 166.77 38.94 168 38.94 168 38.94 C 168.32 38.94 168.52 38.91 168.61 38.86 C 168.7 38.8 168.77 38.66 168.81 38.44 C 168.81 38.44 171.66 24.19 171.66 24.19 C 171.89 23.03 171.97 22.38 171.89 22.23 C 171.8 22.08 171.64 22 171.41 22 C 170.72 22 170.02 22.26 169.33 22.78 C 168.64 23.3 168.05 24.02 167.56 24.94 C 167.56 24.94 164.78 38.84 164.78 38.84 C 164.76 38.96 164.73 39.01 164.7 38.98 C 164.67 38.95 164.79 38.94 165.06 38.94 C 165.06 38.94 166.72 38.94 166.72 38.94 C 166.72 38.94 166.09 42 166.09 42 C 166.09 42 157.34 42 157.34 42 C 157.34 42 157.97 38.94 157.97 38.94 C 157.97 38.94 159.2 38.94 159.2 38.94 C 159.52 38.94 159.73 38.91 159.81 38.86 C 159.91 38.8 159.97 38.66 160.02 38.44 C 160.02 38.44 162.86 24.19 162.86 24.19 C 163.05 23.2 163.12 22.59 163.06 22.36 C 163.01 22.12 162.86 22 162.61 22 C 161.93 22 161.24 22.26 160.55 22.78 C 159.86 23.3 159.25 24.08 158.73 25.11 C 158.73 25.11 156 38.84 156 38.84 C 155.98 38.96 155.95 39.01 155.92 38.98 C 155.89 38.95 156.01 38.94 156.28 38.94 C 156.28 38.94 157.94 38.94 157.94 38.94 C 157.94 38.94 157.31 42 157.31 42 C 157.31 42 148.56 42 148.56 42 C 148.56 42 149.19 38.94 149.19 38.94 C 149.19 38.94 150.42 38.94 150.42 38.94 C 150.73 38.94 150.94 38.91 151.03 38.84 C 151.12 38.78 151.2 38.62 151.25 38.36 C 151.25 38.36 154.72 20.97 154.72 20.97 C 154.76 20.78 154.82 20.73 154.89 20.8 C 154.96 20.86 155 20.93 155 21 C 155 21 152.97 21 152.97 21 C 152.97 21 153.55 17.94 153.55 17.94 C 153.55 17.94 155 17.94 155 17.94 Z M 198.56 27.94 C 199.1 25.77 199.05 24.07 198.41 22.84 C 197.76 21.62 196.73 21 195.33 21 C 193.67 21 192.14 21.71 190.75 23.14 C 189.36 24.56 188.49 26.16 188.14 27.94 C 188.14 27.94 198.56 27.94 198.56 27.94 Z M 187.53 31 C 187.05 33.38 187.25 35.12 188.14 36.25 C 189.04 37.38 190.42 37.94 192.3 37.94 C 193.77 37.94 195.12 37.51 196.33 36.66 C 197.55 35.8 198.68 34.46 199.72 32.64 C 199.72 32.64 202.39 33.86 202.39 33.86 C 201.36 36.13 199.94 38.06 198.12 39.64 C 196.32 41.21 194.12 42 191.52 42 C 188.19 42 185.67 40.93 183.95 38.78 C 182.24 36.62 181.77 33.62 182.55 29.77 C 183.22 26.39 184.8 23.58 187.3 21.33 C 189.79 19.07 192.52 17.94 195.52 17.94 C 198.3 17.94 200.54 18.88 202.25 20.77 C 203.97 22.65 204.34 26.06 203.36 31 C 203.36 31 187.53 31 187.53 31 Z M 207.53 42 C 207.53 42 208.16 38.94 208.16 38.94 C 208.16 38.94 209.98 38.94 209.98 38.94 C 210.38 38.94 210.64 38.89 210.77 38.78 C 210.89 38.68 210.98 38.48 211.03 38.17 C 211.03 38.17 214.47 20.97 214.47 20.97 C 214.51 20.78 214.57 20.72 214.64 20.78 C 214.72 20.84 214.77 20.91 214.77 21 C 214.77 21 211.95 21 211.95 21 C 211.95 21 212.53 17.94 212.53 17.94 C 212.53 17.94 214.75 17.94 214.75 17.94 C 215.33 17.94 215.88 17.88 216.39 17.77 C 216.91 17.65 217.5 17.38 218.16 16.94 C 218.16 16.94 220.11 16.94 220.11 16.94 C 220.11 16.94 219.41 20.17 219.41 20.17 C 219.45 20.08 220.17 19.68 221.58 18.98 C 222.99 18.29 224.43 17.94 225.89 17.94 C 228.45 17.94 230.23 18.66 231.23 20.09 C 232.23 21.52 232.47 23.55 231.95 26.17 C 231.95 26.17 229.47 38.61 229.47 38.61 C 229.44 38.76 229.44 38.85 229.47 38.89 C 229.51 38.92 229.66 38.94 229.91 38.94 C 229.91 38.94 232.14 38.94 232.14 38.94 C 232.14 38.94 231.52 42 231.52 42 C 231.52 42 221.2 42 221.2 42 C 221.2 42 221.83 38.94 221.83 38.94 C 221.83 38.94 223.66 38.94 223.66 38.94 C 224.05 38.94 224.3 38.89 224.42 38.8 C 224.55 38.7 224.63 38.51 224.69 38.25 C 224.69 38.25 227.23 25.52 227.23 25.52 C 227.48 24.26 227.45 23.36 227.12 22.81 C 226.81 22.27 226.2 22 225.3 22 C 224.3 22 223.18 22.35 221.91 23.05 C 220.64 23.73 219.46 24.67 218.34 25.84 C 218.34 25.84 215.78 38.66 215.78 38.66 C 215.75 38.77 215.75 38.85 215.78 38.89 C 215.82 38.92 215.97 38.94 216.23 38.94 C 216.23 38.94 218.47 38.94 218.47 38.94 C 218.47 38.94 217.84 42 217.84 42 C 217.84 42 207.53 42 207.53 42 Z M 250.3 34.52 C 249.99 36.02 250 36.96 250.31 37.36 C 250.63 37.75 251.28 37.94 252.25 37.94 C 253.29 37.94 254.21 37.58 255 36.86 C 255.79 36.14 256.57 34.71 257.34 32.58 C 257.34 32.58 260.12 33.81 260.12 33.81 C 259.22 36.5 258 38.54 256.48 39.92 C 254.97 41.31 253.17 42 251.08 42 C 248.75 42 247.13 41.28 246.2 39.83 C 245.29 38.37 245.1 36.26 245.66 33.5 C 245.66 33.5 248.16 21 248.16 21 C 248.16 21 242.31 21 242.31 21 C 242.31 21 242.89 17.94 242.89 17.94 C 242.89 17.94 245.31 17.94 245.31 17.94 C 246.61 17.94 247.77 17.5 248.8 16.62 C 249.82 15.74 250.64 14.3 251.28 12.3 C 251.28 12.3 252.03 9.94 252.03 9.94 C 252.03 9.94 255.22 9.94 255.22 9.94 C 255.22 9.94 253.61 17.94 253.61 17.94 C 253.61 17.94 261.41 17.94 261.41 17.94 C 261.41 17.94 260.83 21 260.83 21 C 260.83 21 253 21 253 21 C 253 21 250.3 34.52 250.3 34.52 Z M 291.11 30.17 C 290.42 33.56 288.8 36.38 286.25 38.62 C 283.7 40.88 280.86 42 277.73 42 C 274.38 42 271.88 40.79 270.23 38.38 C 268.59 35.95 268.1 33.08 268.77 29.77 C 269.36 26.78 270.91 24.06 273.44 21.61 C 275.96 19.16 278.85 17.94 282.12 17.94 C 285.63 17.94 288.16 19.22 289.7 21.78 C 291.24 24.34 291.71 27.13 291.11 30.17 Z M 273.88 30.36 C 273.26 33.41 273.39 35.61 274.27 36.94 C 275.14 38.27 276.36 38.94 277.94 38.94 C 279.85 38.94 281.52 38.17 282.92 36.62 C 284.34 35.07 285.33 32.85 285.91 29.95 C 286.52 26.88 286.4 24.62 285.55 23.17 C 284.7 21.73 283.5 21 281.94 21 C 280.39 21 278.82 21.78 277.22 23.34 C 275.61 24.9 274.5 27.23 273.88 30.36 Z M 333.05 24.48 C 331.98 29.78 331.83 33.51 332.59 35.69 C 333.36 37.86 334.55 38.94 336.14 38.94 C 338 38.94 339.74 37.86 341.36 35.7 C 342.98 33.54 344.35 29.66 345.47 24.08 C 346.38 19.62 346.59 16.16 346.11 13.7 C 345.63 11.23 344.37 10 342.33 10 C 340.46 10 338.7 11.18 337.03 13.53 C 335.36 15.88 334.04 19.53 333.05 24.48 Z M 351.2 24.58 C 350.13 29.92 348.17 34.16 345.33 37.3 C 342.49 40.43 339.36 42 335.94 42 C 332.53 42 329.98 40.35 328.28 37.05 C 326.58 33.73 326.25 29.45 327.3 24.17 C 328.32 19.09 330.22 14.95 333 11.75 C 335.79 8.54 338.97 6.94 342.53 6.94 C 346.38 6.94 349.02 8.7 350.45 12.2 C 351.9 15.71 352.15 19.84 351.2 24.58 Z M 360.02 45.94 C 360.02 45.94 362.66 45.94 362.66 45.94 C 362.66 45.94 362.03 49 362.03 49 C 362.03 49 350.94 49 350.94 49 C 350.94 49 351.56 45.94 351.56 45.94 C 351.56 45.94 353.58 45.94 353.58 45.94 C 353.97 45.94 354.23 45.88 354.36 45.77 C 354.48 45.66 354.59 45.4 354.67 44.98 C 354.67 44.98 359.36 21.55 359.36 21.55 C 359.41 21.28 359.42 21.12 359.39 21.08 C 359.37 21.03 359.23 21 358.98 21 C 358.98 21 356.56 21 356.56 21 C 356.56 21 357.14 17.94 357.14 17.94 C 357.14 17.94 359.75 17.94 359.75 17.94 C 360.33 17.94 360.88 17.88 361.39 17.77 C 361.91 17.65 362.5 17.38 363.16 16.94 C 363.16 16.94 365.11 16.94 365.11 16.94 C 365.11 16.94 364.12 20.39 364.12 20.39 C 364.05 20.17 364.69 19.71 366.05 19 C 367.41 18.29 368.83 17.94 370.3 17.94 C 373.23 17.94 375.48 18.93 377.03 20.92 C 378.58 22.91 378.95 25.93 378.14 29.98 C 377.37 33.81 375.79 36.77 373.39 38.86 C 371 40.95 368.45 42 365.72 42 C 364.11 42 362.8 41.74 361.78 41.22 C 360.76 40.7 360.25 40.34 360.27 40.14 C 360.27 40.14 359.44 45.39 359.44 45.39 C 359.38 45.63 359.39 45.78 359.47 45.84 C 359.55 45.91 359.73 45.94 360.02 45.94 Z M 361.3 36.08 C 361.58 36.98 362.05 37.68 362.72 38.19 C 363.38 38.69 364.25 38.94 365.33 38.94 C 366.87 38.94 368.36 38.23 369.8 36.8 C 371.24 35.37 372.28 33.1 372.91 29.98 C 373.48 27.12 373.5 25.07 372.97 23.84 C 372.44 22.62 371.41 22 369.91 22 C 368.91 22 367.83 22.32 366.66 22.95 C 365.48 23.58 364.38 24.54 363.34 25.84 C 363.34 25.84 361.3 36.08 361.3 36.08 Z M 401.56 27.94 C 402.1 25.77 402.05 24.07 401.41 22.84 C 400.76 21.62 399.73 21 398.33 21 C 396.67 21 395.14 21.71 393.75 23.14 C 392.36 24.56 391.49 26.16 391.14 27.94 C 391.14 27.94 401.56 27.94 401.56 27.94 Z M 390.53 31 C 390.05 33.38 390.25 35.12 391.14 36.25 C 392.04 37.38 393.42 37.94 395.3 37.94 C 396.77 37.94 398.12 37.51 399.33 36.66 C 400.55 35.8 401.68 34.46 402.72 32.64 C 402.72 32.64 405.39 33.86 405.39 33.86 C 404.36 36.13 402.94 38.06 401.12 39.64 C 399.32 41.21 397.12 42 394.52 42 C 391.19 42 388.67 40.93 386.95 38.78 C 385.24 36.62 384.77 33.62 385.55 29.77 C 386.22 26.39 387.8 23.58 390.3 21.33 C 392.79 19.07 395.52 17.94 398.52 17.94 C 401.3 17.94 403.54 18.88 405.25 20.77 C 406.97 22.65 407.34 26.06 406.36 31 C 406.36 31 390.53 31 390.53 31 Z M 425.14 21.55 C 425.18 21.5 426.12 20.88 427.97 19.7 C 429.82 18.53 431.63 17.94 433.39 17.94 C 434.97 17.94 436.18 18.34 437.02 19.16 C 437.85 19.96 438.15 20.93 437.92 22.06 C 437.75 22.91 437.38 23.61 436.78 24.17 C 436.2 24.73 435.45 25 434.53 25 C 433.53 25 432.79 24.69 432.31 24.06 C 431.83 23.43 431.77 22.69 432.14 21.84 C 432.16 21.77 432.19 21.78 432.22 21.88 C 432.25 21.96 432.18 22 432.02 22 C 431.19 22 429.97 22.59 428.34 23.75 C 426.73 24.92 425.19 26.54 423.72 28.61 C 423.72 28.61 421.72 38.66 421.72 38.66 C 421.69 38.78 421.69 38.86 421.72 38.89 C 421.76 38.92 421.91 38.94 422.16 38.94 C 422.16 38.94 427.72 38.94 427.72 38.94 C 427.72 38.94 427.09 42 427.09 42 C 427.09 42 410.53 42 410.53 42 C 410.53 42 411.16 38.94 411.16 38.94 C 411.16 38.94 415.91 38.94 415.91 38.94 C 416.31 38.94 416.58 38.89 416.7 38.78 C 416.83 38.68 416.91 38.48 416.97 38.17 C 416.97 38.17 420.3 21.56 420.3 21.56 C 420.35 21.29 420.36 21.13 420.33 21.08 C 420.3 21.03 420.17 21 419.92 21 C 419.92 21 414.95 21 414.95 21 C 414.95 21 415.53 17.94 415.53 17.94 C 415.53 17.94 417.95 17.94 417.95 17.94 C 418.82 17.94 419.85 17.84 421.06 17.66 C 422.28 17.47 423.27 17.23 424.03 16.94 C 424.03 16.94 426.05 16.94 426.05 16.94 C 426.05 16.94 425.14 21.55 425.14 21.55 Z M 459.56 27.94 C 460.1 25.77 460.05 24.07 459.41 22.84 C 458.76 21.62 457.73 21 456.33 21 C 454.67 21 453.14 21.71 451.75 23.14 C 450.36 24.56 449.49 26.16 449.14 27.94 C 449.14 27.94 459.56 27.94 459.56 27.94 Z M 448.53 31 C 448.05 33.38 448.25 35.12 449.14 36.25 C 450.04 37.38 451.42 37.94 453.3 37.94 C 454.77 37.94 456.12 37.51 457.33 36.66 C 458.55 35.8 459.68 34.46 460.72 32.64 C 460.72 32.64 463.39 33.86 463.39 33.86 C 462.36 36.13 460.94 38.06 459.12 39.64 C 457.32 41.21 455.12 42 452.52 42 C 449.19 42 446.67 40.93 444.95 38.78 C 443.24 36.62 442.77 33.62 443.55 29.77 C 444.22 26.39 445.8 23.58 448.3 21.33 C 450.79 19.07 453.52 17.94 456.52 17.94 C 459.3 17.94 461.54 18.88 463.25 20.77 C 464.97 22.65 465.34 26.06 464.36 31 C 464.36 31 448.53 31 448.53 31 Z M 503.92 10 C 503.92 10 504.55 6.94 504.55 6.94 C 504.55 6.94 525.44 6.94 525.44 6.94 C 525.44 6.94 526.5 15.27 526.5 15.27 C 526.5 15.27 523.66 16.31 523.66 16.31 C 522.84 13.78 522.02 12.1 521.2 11.27 C 520.39 10.42 519.41 10 518.28 10 C 518.28 10 512.81 10 512.81 10 C 512.51 10 512.27 10.06 512.09 10.19 C 511.91 10.31 511.8 10.51 511.75 10.77 C 511.75 10.77 509.52 21.94 509.52 21.94 C 509.52 21.94 513.92 21.94 513.92 21.94 C 514.96 21.94 515.74 21.7 516.27 21.23 C 516.8 20.76 517.16 19.98 517.38 18.92 C 517.38 18.92 517.78 16.94 517.78 16.94 C 517.78 16.94 521.06 16.94 521.06 16.94 C 521.06 16.94 518.44 30 518.44 30 C 518.44 30 515.14 30 515.14 30 C 515.14 30 515.56 28.03 515.56 28.03 C 515.78 26.93 515.75 26.15 515.48 25.69 C 515.21 25.23 514.62 25 513.72 25 C 513.72 25 508.89 25 508.89 25 C 508.89 25 506.17 38.62 506.17 38.62 C 506.14 38.76 506.14 38.85 506.17 38.89 C 506.21 38.92 506.36 38.94 506.62 38.94 C 506.62 38.94 511.7 38.94 511.7 38.94 C 513.43 38.94 515.02 38.43 516.45 37.41 C 517.89 36.38 519.35 34.45 520.83 31.64 C 520.83 31.64 523.58 32.84 523.58 32.84 C 523.58 32.84 519.19 42 519.19 42 C 519.19 42 497.34 42 497.34 42 C 497.34 42 497.97 38.94 497.97 38.94 C 497.97 38.94 499.98 38.94 499.98 38.94 C 500.38 38.94 500.64 38.89 500.77 38.78 C 500.89 38.68 500.98 38.48 501.03 38.2 C 501.03 38.2 506.59 10.33 506.59 10.33 C 506.63 10.12 506.65 10.02 506.64 10.02 C 506.64 10.01 506.48 10 506.17 10 C 506.17 10 503.92 10 503.92 10 Z M 546.73 22.98 C 546.48 22.39 545.98 21.91 545.22 21.55 C 544.46 21.18 543.63 21 542.75 21 C 541.11 21 539.64 21.81 538.33 23.42 C 537.02 25.04 536.09 27.25 535.53 30.06 C 534.95 32.94 534.95 34.97 535.55 36.16 C 536.15 37.34 537.21 37.94 538.73 37.94 C 539.93 37.94 541.03 37.55 542.03 36.77 C 543.03 35.98 543.92 34.79 544.7 33.22 C 544.7 33.22 546.73 22.98 546.73 22.98 Z M 537.77 42 C 535.07 42 532.96 40.94 531.45 38.81 C 529.94 36.68 529.58 33.66 530.36 29.77 C 531.08 26.2 532.63 23.34 535.03 21.19 C 537.44 19.02 540 17.94 542.73 17.94 C 543.92 17.94 545.11 18.2 546.31 18.73 C 547.51 19.26 548.02 19.7 547.84 20.06 C 547.84 20.06 549.12 11.08 549.12 11.08 C 549.24 10.54 549.27 10.23 549.23 10.14 C 549.19 10.05 549.06 10 548.84 10 C 548.84 10 546.02 10 546.02 10 C 546.02 10 546.64 6.94 546.64 6.94 C 546.64 6.94 549.62 6.94 549.62 6.94 C 550.12 6.94 550.68 6.8 551.28 6.52 C 551.89 6.23 553.31 5.15 555.53 3.25 C 555.53 3.25 548.7 37.39 548.7 37.39 C 548.63 37.73 548.6 37.91 548.61 37.92 C 548.62 37.93 548.71 37.94 548.89 37.94 C 548.89 37.94 551.52 37.94 551.52 37.94 C 551.52 37.94 550.94 41 550.94 41 C 550.94 41 548.91 41 548.91 41 C 548.46 41 547.88 41.08 547.19 41.23 C 546.5 41.38 545.7 41.64 544.8 42 C 544.8 42 542.95 42 542.95 42 C 542.95 42 544.06 39.14 544.06 39.14 C 544.25 39.48 543.64 40.04 542.25 40.83 C 540.86 41.61 539.37 42 537.77 42 Z M 569.2 21.56 C 569.25 21.29 569.27 21.13 569.23 21.08 C 569.21 21.03 569.08 21 568.83 21 C 568.83 21 563.47 21 563.47 21 C 563.47 21 564.05 17.94 564.05 17.94 C 564.05 17.94 566.86 17.94 566.86 17.94 C 567.99 17.94 569.06 17.88 570.06 17.75 C 571.07 17.62 572.09 17.34 573.11 16.94 C 573.11 16.94 574.95 16.94 574.95 16.94 C 574.95 16.94 570.64 38.61 570.64 38.61 C 570.61 38.76 570.61 38.85 570.64 38.89 C 570.68 38.92 570.83 38.94 571.08 38.94 C 571.08 38.94 576.44 38.94 576.44 38.94 C 576.44 38.94 575.81 42 575.81 42 C 575.81 42 559.25 42 559.25 42 C 559.25 42 559.88 38.94 559.88 38.94 C 559.88 38.94 564.83 38.94 564.83 38.94 C 565.22 38.94 565.48 38.89 565.61 38.78 C 565.73 38.68 565.82 38.48 565.88 38.17 C 565.88 38.17 569.2 21.56 569.2 21.56 Z M 574.53 6.94 C 575.48 6.94 576.27 7.29 576.92 8 C 577.57 8.71 577.79 9.57 577.59 10.58 C 577.43 11.48 576.93 12.27 576.11 12.97 C 575.29 13.66 574.43 14 573.53 14 C 572.54 14 571.74 13.61 571.12 12.83 C 570.52 12.04 570.3 11.15 570.48 10.17 C 570.67 9.26 571.17 8.49 571.98 7.88 C 572.8 7.25 573.64 6.94 574.53 6.94 Z M 598.06 6.94 C 599.12 6.94 600.16 6.79 601.17 6.48 C 602.19 6.17 603.27 5.66 604.42 4.94 C 604.42 4.94 606.38 4.94 606.38 4.94 C 606.38 4.94 599.64 38.59 599.64 38.59 C 599.61 38.75 599.61 38.85 599.64 38.89 C 599.68 38.92 599.83 38.94 600.08 38.94 C 600.08 38.94 605.83 38.94 605.83 38.94 C 605.83 38.94 605.2 42 605.2 42 C 605.2 42 587.86 42 587.86 42 C 587.86 42 588.48 38.94 588.48 38.94 C 588.48 38.94 593.83 38.94 593.83 38.94 C 594.22 38.94 594.48 38.89 594.61 38.78 C 594.73 38.68 594.82 38.48 594.88 38.2 C 594.88 38.2 600.44 10.33 600.44 10.33 C 600.48 10.12 600.49 10.02 600.48 10.02 C 600.48 10.01 600.32 10 600 10 C 600 10 594.44 10 594.44 10 C 594.44 10 595.06 6.94 595.06 6.94 C 595.06 6.94 598.06 6.94 598.06 6.94 Z M 627.2 21.56 C 627.25 21.29 627.27 21.13 627.23 21.08 C 627.21 21.03 627.08 21 626.83 21 C 626.83 21 621.47 21 621.47 21 C 621.47 21 622.05 17.94 622.05 17.94 C 622.05 17.94 624.86 17.94 624.86 17.94 C 625.99 17.94 627.06 17.88 628.06 17.75 C 629.07 17.62 630.09 17.34 631.11 16.94 C 631.11 16.94 632.95 16.94 632.95 16.94 C 632.95 16.94 628.64 38.61 628.64 38.61 C 628.61 38.76 628.61 38.85 628.64 38.89 C 628.68 38.92 628.83 38.94 629.08 38.94 C 629.08 38.94 634.44 38.94 634.44 38.94 C 634.44 38.94 633.81 42 633.81 42 C 633.81 42 617.25 42 617.25 42 C 617.25 42 617.88 38.94 617.88 38.94 C 617.88 38.94 622.83 38.94 622.83 38.94 C 623.22 38.94 623.48 38.89 623.61 38.78 C 623.73 38.68 623.82 38.48 623.88 38.17 C 623.88 38.17 627.2 21.56 627.2 21.56 Z M 632.53 6.94 C 633.48 6.94 634.27 7.29 634.92 8 C 635.57 8.71 635.79 9.57 635.59 10.58 C 635.43 11.48 634.93 12.27 634.11 12.97 C 633.29 13.66 632.43 14 631.53 14 C 630.54 14 629.74 13.61 629.12 12.83 C 628.52 12.04 628.3 11.15 628.48 10.17 C 628.67 9.26 629.17 8.49 629.98 7.88 C 630.8 7.25 631.64 6.94 632.53 6.94 Z" transform="translate(-321.51, -26.13)" style="stroke: rgb(171,171,171); stroke-width: 1; stroke-dasharray: none; stroke-linecap: butt; stroke-dashoffset: 0; stroke-linejoin: miter; stroke-miterlimit: 4; fill: rgb(255,252,252); fill-rule: nonzero; opacity: 1;"/>
</g>
</svg>