<?xml version="1.0" encoding="UTF-8" standalone="no"?>
<!DOCTYPE svg PUBLIC "-//W3C//DTD SVG 20010904//EN"
              "http://www.w3.org/TR/2001/REC-SVG-20010904/DTD/svg10.dtd">

<svg xmlns="http://www.w3.org/2000/svg"
     width="1in" height="1in"
     viewBox="0 0 300 300">
  <path id="Tracciato #5"
        fill="none" stroke="black" stroke-width="1"
        d="M 35.05,99.00
           C 25.57,99.00 18.03,95.45 12.44,88.33
             6.85,81.20 4.06,70.01 4.06,54.75
             4.06,41.87 7.02,31.19 12.95,22.72
             18.88,14.24 26.92,10.00 37.08,10.00
             39.44,10.00 41.80,10.43 44.17,11.28
             46.55,12.12 48.58,12.55 50.28,12.55
             51.63,12.55 52.73,12.38 53.58,12.05
             54.42,11.70 55.18,11.02 55.86,10.00
             55.86,10.00 60.44,32.00 60.44,32.00
             60.44,32.00 57.39,33.00 57.39,33.00
             55.36,26.50 52.65,21.54 49.27,18.12
             45.88,14.71 41.48,13.00 36.06,13.00
             28.96,13.00 23.46,16.95 19.56,24.86
             15.66,32.77 13.72,42.57 13.72,54.27
             13.72,66.98 15.41,76.95 18.80,84.17
             22.18,91.39 27.77,95.00 35.56,95.00
             40.98,95.00 45.63,93.00 49.52,88.98
             53.41,84.96 56.04,79.64 57.39,73.00
             57.39,73.00 60.44,74.53 60.44,74.53
             58.74,81.67 55.60,87.53 51.03,92.12
             46.47,96.71 41.14,99.00 35.05,99.00 Z
           M 14.22,153.98
           C 14.22,168.67 15.99,179.35 19.55,186.02
             23.11,192.67 27.60,196.00 33.02,196.00
             38.77,196.00 43.33,192.84 46.72,186.53
             50.10,180.21 51.80,169.36 51.80,153.98
             51.80,141.70 50.36,131.79 47.48,124.28
             44.61,116.76 39.79,113.00 33.02,113.00
             27.25,113.00 22.68,116.42 19.30,123.25
             15.91,130.09 14.22,140.33 14.22,153.98 Z
           M 61.45,154.25
           C 61.45,168.15 58.74,179.08 53.33,187.05
             47.91,195.02 41.14,199.00 33.02,199.00
             25.23,199.00 18.55,194.93 12.95,186.80
             7.37,178.66 4.58,167.81 4.58,154.25
             4.58,141.02 7.20,130.34 12.45,122.20
             17.70,114.07 24.55,110.00 33.02,110.00
             41.82,110.00 48.75,114.32 53.83,122.97
             58.91,131.62 61.45,142.04 61.45,154.25 Z
           M 4.06,215.00
           C 4.06,215.00 4.06,212.00 4.06,212.00
             4.06,212.00 53.83,212.00 53.83,212.00
             53.83,212.00 59.42,229.00 59.42,229.00
             59.42,229.00 56.88,230.00 56.88,230.00
             54.16,225.00 51.29,221.25 48.23,218.75
             45.19,216.25 41.81,215.00 38.09,215.00
             38.09,215.00 23.88,215.00 23.88,215.00
             22.52,215.00 21.41,215.34 20.56,216.03
             19.72,216.72 19.30,217.75 19.30,219.11
             19.30,219.11 19.30,251.00 19.30,251.00
             19.30,251.00 34.03,251.00 34.03,251.00
             37.41,251.00 39.87,250.17 41.39,248.50
             42.91,246.84 43.67,244.34 43.67,241.00
             43.67,241.00 43.67,238.00 43.67,238.00
             43.67,238.00 46.72,238.00 46.72,238.00
             46.72,238.00 46.72,267.00 46.72,267.00
             46.72,267.00 43.67,267.00 43.67,267.00
             43.67,267.00 43.67,265.08 43.67,265.08
             43.67,261.55 42.91,258.82 41.39,256.89
             39.87,254.96 37.41,254.00 34.03,254.00
             34.03,254.00 19.30,254.00 19.30,254.00
             19.30,254.00 19.30,291.95 19.30,291.95
             19.30,293.30 19.72,294.31 20.56,294.98
             21.41,295.66 22.52,296.00 23.88,296.00
             23.88,296.00 37.08,296.00 37.08,296.00
             42.15,296.00 46.46,294.54 50.02,291.62
             53.58,288.71 56.38,284.17 58.41,278.00
             58.41,278.00 60.94,279.03 60.94,279.03
             60.94,279.03 55.36,299.00 55.36,299.00
             55.36,299.00 3.56,299.00 3.56,299.00
             3.56,299.00 3.56,296.00 3.56,296.00
             3.56,296.00 6.61,296.00 6.61,296.00
             8.30,296.00 9.48,295.66 10.16,294.98
             10.83,294.31 11.17,293.29 11.17,291.92
             11.17,291.92 11.17,219.08 11.17,219.08
             11.17,217.71 10.83,216.70 10.16,216.02
             9.48,215.34 8.30,215.00 6.61,215.00
             6.61,215.00 4.06,215.00 4.06,215.00 Z
           M 91.34,87.00
           C 92.07,84.06 92.04,81.83 91.23,80.30
             90.43,78.77 89.12,78.00 87.30,78.00
             85.35,78.00 83.59,78.80 82.03,80.41
             80.47,82.00 79.41,84.20 78.84,87.00
             78.84,87.00 91.34,87.00 91.34,87.00 Z
           M 78.66,88.00
           C 78.00,91.24 78.22,93.55 79.31,94.94
             80.41,96.31 82.05,97.00 84.27,97.00
             85.96,97.00 87.49,96.52 88.86,95.56
             90.22,94.59 91.30,93.41 92.11,92.00
             92.11,92.00 93.00,92.41 93.00,92.41
             92.31,93.92 91.14,95.40 89.48,96.84
             87.83,98.28 85.83,99.00 83.48,99.00
             80.49,99.00 78.24,98.05 76.73,96.16
             75.22,94.26 74.82,91.54 75.53,88.00
             76.16,84.84 77.62,82.23 79.92,80.14
             82.23,78.05 84.75,77.00 87.48,77.00
             89.96,77.00 91.95,77.82 93.44,79.47
             94.94,81.12 95.29,83.96 94.48,88.00
             94.48,88.00 78.66,88.00 78.66,88.00 Z
           M 96.77,99.00
           C 96.77,99.00 96.97,98.00 96.97,98.00
             96.97,98.00 97.95,98.00 97.95,98.00
             98.60,98.00 99.08,97.87 99.39,97.61
             99.70,97.34 99.91,96.94 100.02,96.41
             100.02,96.41 103.45,79.20 103.45,79.20
             103.54,78.80 103.53,78.50 103.44,78.30
             103.35,78.10 103.12,78.00 102.73,78.00
             102.73,78.00 101.17,78.00 101.17,78.00
             101.17,78.00 101.36,77.00 101.36,77.00
             101.36,77.00 102.72,77.00 102.72,77.00
             103.38,77.00 104.01,76.93 104.62,76.80
             105.24,76.66 105.84,76.40 106.44,76.00
             106.44,76.00 106.83,76.00 106.83,76.00
             106.83,76.00 105.86,80.86 105.86,80.86
             107.30,79.57 108.66,78.61 109.95,77.97
             111.25,77.32 112.55,77.00 113.86,77.00
             116.07,77.00 117.58,77.59 118.39,78.75
             119.20,79.92 119.38,81.67 118.91,84.00
             118.91,84.00 116.42,96.44 116.42,96.44
             116.32,96.96 116.40,97.35 116.67,97.61
             116.95,97.87 117.35,98.00 117.88,98.00
             117.88,98.00 118.84,98.00 118.84,98.00
             118.84,98.00 118.64,99.00 118.64,99.00
             118.64,99.00 110.44,99.00 110.44,99.00
             110.44,99.00 110.64,98.00 110.64,98.00
             110.64,98.00 111.62,98.00 111.62,98.00
             112.27,98.00 112.74,97.88 113.05,97.62
             113.36,97.37 113.57,96.98 113.67,96.48
             113.67,96.48 116.22,83.75 116.22,83.75
             116.52,82.23 116.43,81.06 115.94,80.23
             115.46,79.41 114.57,79.00 113.27,79.00
             112.10,79.00 110.82,79.38 109.42,80.14
             108.04,80.90 106.68,81.98 105.36,83.38
             105.36,83.38 102.73,96.48 102.73,96.48
             102.63,96.98 102.72,97.37 103.00,97.62
             103.28,97.88 103.68,98.00 104.20,98.00
             104.20,98.00 105.17,98.00 105.17,98.00
             105.17,98.00 104.97,99.00 104.97,99.00
             104.97,99.00 96.77,99.00 96.77,99.00 Z
           M 128.31,82.92
           C 128.69,81.02 129.72,79.55 131.42,78.53
             133.12,77.51 135.01,77.00 137.09,77.00
             138.27,77.00 139.35,77.17 140.33,77.50
             141.30,77.82 141.99,77.98 142.38,77.98
             142.77,77.98 143.11,77.92 143.39,77.80
             143.68,77.66 144.05,77.40 144.52,77.00
             144.52,77.00 143.94,83.80 143.94,83.80
             143.94,83.80 142.73,84.00 142.73,84.00
             142.58,82.15 141.99,80.68 140.97,79.61
             139.96,78.54 138.67,78.00 137.11,78.00
             135.41,78.00 134.01,78.33 132.91,78.98
             131.80,79.63 131.13,80.54 130.89,81.70
             130.68,82.75 130.75,83.56 131.09,84.16
             131.44,84.74 132.16,85.16 133.28,85.42
             134.10,85.81 135.16,86.23 136.44,86.67
             137.72,87.11 138.89,87.59 139.95,88.09
             140.90,88.61 141.65,89.28 142.20,90.11
             142.75,90.93 142.93,91.86 142.72,92.88
             142.33,94.79 141.35,96.29 139.77,97.38
             138.19,98.46 136.10,99.00 133.50,99.00
             131.80,99.00 130.56,98.84 129.78,98.52
             129.00,98.18 128.35,98.02 127.83,98.02
             127.43,98.02 126.99,98.12 126.50,98.31
             126.01,98.51 125.48,98.74 124.91,99.00
             124.91,99.00 125.67,92.19 125.67,92.19
             125.67,92.19 126.88,92.00 126.88,92.00
             126.88,94.00 127.43,95.50 128.53,96.50
             129.63,97.50 131.36,98.00 133.70,98.00
             135.52,98.00 136.99,97.68 138.09,97.03
             139.20,96.38 139.88,95.40 140.14,94.09
             140.32,93.18 140.20,92.43 139.80,91.84
             139.40,91.26 138.97,90.84 138.50,90.58
             137.29,90.07 135.96,89.53 134.52,88.95
             133.07,88.38 131.80,87.84 130.73,87.33
             129.67,86.82 128.95,86.18 128.58,85.42
             128.21,84.65 128.12,83.82 128.31,82.92 Z
           M 160.19,79.80
           C 160.29,79.27 160.24,78.84 160.05,78.50
             159.86,78.17 159.44,78.00 158.80,78.00
             158.80,78.00 154.69,78.00 154.69,78.00
             154.69,78.00 154.88,77.00 154.88,77.00
             154.88,77.00 156.83,77.00 156.83,77.00
             158.00,77.00 159.13,76.93 160.20,76.80
             161.27,76.65 162.30,76.39 163.28,76.00
             163.28,76.00 163.67,76.00 163.67,76.00
             163.67,76.00 159.59,96.44 159.59,96.44
             159.49,96.96 159.57,97.35 159.84,97.61
             160.12,97.87 160.52,98.00 161.05,98.00
             161.05,98.00 165.14,98.00 165.14,98.00
             165.14,98.00 164.94,99.00 164.94,99.00
             164.94,99.00 150.48,99.00 150.48,99.00
             150.48,99.00 150.69,98.00 150.69,98.00
             150.69,98.00 154.80,98.00 154.80,98.00
             155.44,98.00 155.92,97.87 156.23,97.61
             156.55,97.34 156.75,96.94 156.86,96.41
             156.86,96.41 160.19,79.80 160.19,79.80 Z
           M 164.50,66.00
           C 165.14,66.00 165.68,66.23 166.11,66.70
             166.54,67.17 166.68,67.74 166.55,68.41
             166.42,69.07 166.04,69.67 165.41,70.20
             164.78,70.73 164.14,71.00 163.50,71.00
             162.84,71.00 162.30,70.73 161.89,70.20
             161.48,69.67 161.34,69.07 161.47,68.41
             161.60,67.74 161.98,67.17 162.59,66.70
             163.21,66.23 163.84,66.00 164.50,66.00 Z
           M 175.97,77.00
           C 176.61,77.00 177.28,76.92 177.97,76.75
             178.66,76.59 179.23,76.34 179.69,76.00
             179.69,76.00 180.08,76.00 180.08,76.00
             180.08,76.00 179.30,79.89 179.30,79.89
             180.16,78.86 181.02,78.12 181.89,77.67
             182.77,77.23 183.66,77.00 184.56,77.00
             185.74,77.00 186.61,77.23 187.17,77.67
             187.73,78.12 187.97,78.86 187.89,79.89
             188.75,78.86 189.65,78.12 190.58,77.67
             191.52,77.23 192.44,77.00 193.36,77.00
             194.92,77.00 195.91,77.45 196.31,78.36
             196.72,79.27 196.77,80.43 196.48,81.86
             196.48,81.86 193.53,96.64 193.53,96.64
             193.43,97.16 193.48,97.52 193.70,97.72
             193.93,97.91 194.30,98.00 194.83,98.00
             194.83,98.00 195.22,98.00 195.22,98.00
             195.22,98.00 195.02,99.00 195.02,99.00
             195.02,99.00 188.38,99.00 188.38,99.00
             188.38,99.00 188.58,98.00 188.58,98.00
             188.58,98.00 188.97,98.00 188.97,98.00
             189.49,98.00 189.89,97.91 190.19,97.72
             190.49,97.53 190.69,97.18 190.80,96.67
             190.80,96.67 193.64,82.42 193.64,82.42
             193.92,81.03 193.94,80.11 193.70,79.67
             193.46,79.23 193.02,79.00 192.38,79.00
             191.46,79.00 190.58,79.32 189.73,79.95
             188.89,80.59 188.16,81.48 187.55,82.61
             187.55,82.61 184.73,96.67 184.73,96.67
             184.63,97.18 184.69,97.53 184.91,97.72
             185.13,97.91 185.51,98.00 186.03,98.00
             186.03,98.00 186.42,98.00 186.42,98.00
             186.42,98.00 186.22,99.00 186.22,99.00
             186.22,99.00 179.58,99.00 179.58,99.00
             179.58,99.00 179.78,98.00 179.78,98.00
             179.78,98.00 180.17,98.00 180.17,98.00
             180.69,98.00 181.10,97.91 181.39,97.72
             181.69,97.53 181.89,97.18 182.00,96.67
             182.00,96.67 184.84,82.42 184.84,82.42
             185.07,81.28 185.11,80.42 184.97,79.86
             184.82,79.29 184.36,79.00 183.58,79.00
             182.67,79.00 181.79,79.32 180.94,79.95
             180.09,80.59 179.35,81.54 178.72,82.80
             178.72,82.80 175.95,96.67 175.95,96.67
             175.85,97.18 175.91,97.53 176.12,97.72
             176.35,97.91 176.73,98.00 177.25,98.00
             177.25,98.00 177.64,98.00 177.64,98.00
             177.64,98.00 177.44,99.00 177.44,99.00
             177.44,99.00 170.80,99.00 170.80,99.00
             170.80,99.00 171.00,98.00 171.00,98.00
             171.00,98.00 171.39,98.00 171.39,98.00
             171.91,98.00 172.32,97.90 172.61,97.70
             172.91,97.51 173.12,97.14 173.23,96.59
             173.23,96.59 176.70,79.20 176.70,79.20
             176.79,78.80 176.78,78.50 176.69,78.30
             176.60,78.10 176.36,78.00 175.97,78.00
             175.97,78.00 175.19,78.00 175.19,78.00
             175.19,78.00 175.38,77.00 175.38,77.00
             175.38,77.00 175.97,77.00 175.97,77.00 Z
           M 216.34,87.00
           C 217.07,84.06 217.04,81.83 216.23,80.30
             215.43,78.77 214.12,78.00 212.30,78.00
             210.35,78.00 208.59,78.80 207.03,80.41
             205.47,82.00 204.41,84.20 203.84,87.00
             203.84,87.00 216.34,87.00 216.34,87.00 Z
           M 203.66,88.00
           C 203.00,91.24 203.22,93.55 204.31,94.94
             205.41,96.31 207.05,97.00 209.27,97.00
             210.96,97.00 212.49,96.52 213.86,95.56
             215.22,94.59 216.30,93.41 217.11,92.00
             217.11,92.00 218.00,92.41 218.00,92.41
             217.31,93.92 216.14,95.40 214.48,96.84
             212.83,98.28 210.83,99.00 208.48,99.00
             205.49,99.00 203.24,98.05 201.73,96.16
             200.22,94.26 199.82,91.54 200.53,88.00
             201.16,84.84 202.62,82.23 204.92,80.14
             207.23,78.05 209.75,77.00 212.48,77.00
             214.96,77.00 216.95,77.82 218.44,79.47
             219.94,81.12 220.29,83.96 219.48,88.00
             219.48,88.00 203.66,88.00 203.66,88.00 Z
           M 221.77,99.00
           C 221.77,99.00 221.97,98.00 221.97,98.00
             221.97,98.00 222.95,98.00 222.95,98.00
             223.60,98.00 224.08,97.87 224.39,97.61
             224.70,97.34 224.91,96.94 225.02,96.41
             225.02,96.41 228.45,79.20 228.45,79.20
             228.54,78.80 228.53,78.50 228.44,78.30
             228.35,78.10 228.12,78.00 227.73,78.00
             227.73,78.00 226.17,78.00 226.17,78.00
             226.17,78.00 226.36,77.00 226.36,77.00
             226.36,77.00 227.72,77.00 227.72,77.00
             228.38,77.00 229.01,76.93 229.62,76.80
             230.24,76.66 230.84,76.40 231.44,76.00
             231.44,76.00 231.83,76.00 231.83,76.00
             231.83,76.00 230.86,80.86 230.86,80.86
             232.30,79.57 233.66,78.61 234.95,77.97
             236.25,77.32 237.55,77.00 238.86,77.00
             241.07,77.00 242.58,77.59 243.39,78.75
             244.20,79.92 244.38,81.67 243.91,84.00
             243.91,84.00 241.42,96.44 241.42,96.44
             241.32,96.96 241.40,97.35 241.67,97.61
             241.95,97.87 242.35,98.00 242.88,98.00
             242.88,98.00 243.84,98.00 243.84,98.00
             243.84,98.00 243.64,99.00 243.64,99.00
             243.64,99.00 235.44,99.00 235.44,99.00
             235.44,99.00 235.64,98.00 235.64,98.00
             235.64,98.00 236.62,98.00 236.62,98.00
             237.27,98.00 237.74,97.88 238.05,97.62
             238.36,97.37 238.57,96.98 238.67,96.48
             238.67,96.48 241.22,83.75 241.22,83.75
             241.52,82.23 241.43,81.06 240.94,80.23
             240.46,79.41 239.57,79.00 238.27,79.00
             237.10,79.00 235.82,79.38 234.42,80.14
             233.04,80.90 231.68,81.98 230.36,83.38
             230.36,83.38 227.73,96.48 227.73,96.48
             227.63,96.98 227.72,97.37 228.00,97.62
             228.28,97.88 228.68,98.00 229.20,98.00
             229.20,98.00 230.17,98.00 230.17,98.00
             230.17,98.00 229.97,99.00 229.97,99.00
             229.97,99.00 221.77,99.00 221.77,99.00 Z
           M 258.25,92.34
           C 257.88,94.16 257.96,95.39 258.48,96.03
             259.00,96.68 259.91,97.00 261.22,97.00
             262.52,97.00 263.65,96.57 264.61,95.70
             265.57,94.84 266.33,93.61 266.91,92.00
             266.91,92.00 267.81,92.41 267.81,92.41
             267.16,94.34 266.16,95.92 264.81,97.16
             263.46,98.39 261.87,99.00 260.05,99.00
             258.10,99.00 256.75,98.41 256.00,97.23
             255.26,96.06 255.14,94.23 255.64,91.73
             255.64,91.73 258.39,78.00 258.39,78.00
             258.39,78.00 252.53,78.00 252.53,78.00
             252.53,78.00 252.72,77.00 252.72,77.00
             252.72,77.00 254.28,77.00 254.28,77.00
             255.84,77.00 257.22,76.49 258.41,75.47
             259.59,74.44 260.54,72.83 261.23,70.64
             261.23,70.64 261.75,69.00 261.75,69.00
             261.75,69.00 262.92,69.00 262.92,69.00
             262.92,69.00 261.31,77.00 261.31,77.00
             261.31,77.00 269.12,77.00 269.12,77.00
             269.12,77.00 268.94,78.00 268.94,78.00
             268.94,78.00 261.12,78.00 261.12,78.00
             261.12,78.00 258.25,92.34 258.25,92.34 Z
           M 295.06,88.00
           C 294.43,91.16 292.92,93.78 290.55,95.88
             288.18,97.96 285.57,99.00 282.70,99.00
             279.71,99.00 277.48,97.93 276.02,95.78
             274.55,93.62 274.13,91.03 274.75,88.00
             275.30,85.22 276.75,82.70 279.09,80.42
             281.44,78.14 284.10,77.00 287.09,77.00
             290.22,77.00 292.46,78.14 293.83,80.42
             295.20,82.70 295.61,85.22 295.06,88.00 Z
           M 277.83,88.19
           C 277.16,91.52 277.35,93.99 278.41,95.59
             279.46,97.20 280.96,98.00 282.91,98.00
             285.12,98.00 287.02,97.14 288.59,95.41
             290.18,93.68 291.27,91.27 291.89,88.19
             292.55,84.86 292.38,82.32 291.36,80.59
             290.35,78.87 288.86,78.00 286.91,78.00
             285.08,78.00 283.28,78.87 281.50,80.59
             279.72,82.32 278.49,84.86 277.83,88.19 Z
           M 78.98,205.00
           C 78.98,205.00 80.36,205.00 80.36,205.00
             80.36,205.00 80.16,206.00 80.16,206.00
             80.16,206.00 71.17,206.00 71.17,206.00
             71.17,206.00 71.38,205.00 71.38,205.00
             71.38,205.00 72.55,205.00 72.55,205.00
             73.19,205.00 73.67,204.86 73.98,204.59
             74.30,204.33 74.52,203.88 74.66,203.22
             74.66,203.22 79.34,179.78 79.34,179.78
             79.45,179.26 79.40,178.84 79.20,178.50
             79.02,178.17 78.60,178.00 77.95,178.00
             77.95,178.00 76.78,178.00 76.78,178.00
             76.78,178.00 76.97,177.00 76.97,177.00
             76.97,177.00 78.72,177.00 78.72,177.00
             79.38,177.00 80.01,176.93 80.62,176.80
             81.24,176.66 81.84,176.40 82.44,176.00
             82.44,176.00 82.83,176.00 82.83,176.00
             82.83,176.00 81.86,180.86 81.86,180.86
             83.04,179.57 84.24,178.61 85.47,177.97
             86.70,177.32 87.96,177.00 89.27,177.00
             91.87,177.00 93.84,177.87 95.19,179.61
             96.54,181.34 96.84,184.07 96.09,187.81
             95.38,191.41 93.91,194.17 91.70,196.11
             89.49,198.04 87.16,199.00 84.69,199.00
             83.25,199.00 82.09,198.78 81.20,198.33
             80.32,197.87 79.50,197.20 78.77,196.30
             78.77,196.30 77.39,203.22 77.39,203.22
             77.25,203.88 77.35,204.33 77.69,204.59
             78.03,204.86 78.46,205.00 78.98,205.00 Z
           M 79.20,194.16
           C 79.60,195.44 80.22,196.40 81.06,197.05
             81.91,197.68 82.99,198.00 84.30,198.00
             86.12,198.00 87.84,197.20 89.45,195.61
             91.08,194.01 92.22,191.54 92.89,188.22
             93.50,185.15 93.48,182.84 92.81,181.31
             92.14,179.77 90.83,179.00 88.88,179.00
             87.71,179.00 86.47,179.36 85.16,180.06
             83.84,180.76 82.57,181.88 81.34,183.42
             81.34,183.42 79.20,194.16 79.20,194.16 Z
           M 117.34,187.00
           C 118.07,184.06 118.04,181.83 117.23,180.30
             116.43,178.77 115.12,178.00 113.30,178.00
             111.35,178.00 109.59,178.80 108.03,180.41
             106.47,182.00 105.41,184.20 104.84,187.00
             104.84,187.00 117.34,187.00 117.34,187.00 Z
           M 104.66,188.00
           C 104.00,191.24 104.22,193.55 105.31,194.94
             106.41,196.31 108.05,197.00 110.27,197.00
             111.96,197.00 113.49,196.52 114.86,195.56
             116.22,194.59 117.30,193.41 118.11,192.00
             118.11,192.00 119.00,192.41 119.00,192.41
             118.31,193.92 117.14,195.40 115.48,196.84
             113.83,198.28 111.83,199.00 109.48,199.00
             106.49,199.00 104.24,198.05 102.73,196.16
             101.22,194.26 100.82,191.54 101.53,188.00
             102.16,184.84 103.62,182.23 105.92,180.14
             108.23,178.05 110.75,177.00 113.48,177.00
             115.96,177.00 117.95,177.82 119.44,179.47
             120.94,181.12 121.29,183.96 120.48,188.00
             120.48,188.00 104.66,188.00 104.66,188.00 Z
           M 134.30,183.38
           C 136.00,181.31 137.72,179.73 139.44,178.64
             141.16,177.55 142.80,177.00 144.36,177.00
             145.66,177.00 146.61,177.29 147.20,177.88
             147.80,178.45 148.03,179.12 147.88,179.89
             147.75,180.53 147.48,181.04 147.08,181.42
             146.67,181.81 146.14,182.00 145.50,182.00
             144.84,182.00 144.38,181.84 144.12,181.50
             143.88,181.17 143.87,180.73 144.11,180.17
             144.17,179.84 144.16,179.56 144.08,179.34
             143.99,179.12 143.63,179.00 142.98,179.00
             141.94,179.00 140.54,179.64 138.78,180.91
             137.03,182.17 135.34,183.94 133.72,186.22
             133.72,186.22 131.67,196.48 131.67,196.48
             131.57,196.98 131.65,197.37 131.92,197.62
             132.20,197.88 132.60,198.00 133.12,198.00
             133.12,198.00 137.42,198.00 137.42,198.00
             137.42,198.00 137.22,199.00 137.22,199.00
             137.22,199.00 122.77,199.00 122.77,199.00
             122.77,199.00 122.97,198.00 122.97,198.00
             122.97,198.00 126.88,198.00 126.88,198.00
             127.53,198.00 128.02,197.87 128.33,197.61
             128.64,197.34 128.85,196.94 128.95,196.41
             128.95,196.41 132.28,179.80 132.28,179.80
             132.38,179.27 132.34,178.84 132.14,178.50
             131.95,178.17 131.54,178.00 130.89,178.00
             130.89,178.00 127.17,178.00 127.17,178.00
             127.17,178.00 127.36,177.00 127.36,177.00
             127.36,177.00 128.92,177.00 128.92,177.00
             129.84,177.00 130.93,176.90 132.20,176.70
             133.48,176.51 134.48,176.27 135.19,176.00
             135.19,176.00 135.77,176.00 135.77,176.00
             135.77,176.00 134.30,183.38 134.30,183.38 Z
           M 167.34,187.00
           C 168.07,184.06 168.04,181.83 167.23,180.30
             166.43,178.77 165.12,178.00 163.30,178.00
             161.35,178.00 159.59,178.80 158.03,180.41
             156.47,182.00 155.41,184.20 154.84,187.00
             154.84,187.00 167.34,187.00 167.34,187.00 Z
           M 154.66,188.00
           C 154.00,191.24 154.22,193.55 155.31,194.94
             156.41,196.31 158.05,197.00 160.27,197.00
             161.96,197.00 163.49,196.52 164.86,195.56
             166.22,194.59 167.30,193.41 168.11,192.00
             168.11,192.00 169.00,192.41 169.00,192.41
             168.31,193.92 167.14,195.40 165.48,196.84
             163.83,198.28 161.83,199.00 159.48,199.00
             156.49,199.00 154.24,198.05 152.73,196.16
             151.22,194.26 150.82,191.54 151.53,188.00
             152.16,184.84 153.62,182.23 155.92,180.14
             158.23,178.05 160.75,177.00 163.48,177.00
             165.96,177.00 167.95,177.82 169.44,179.47
             170.94,181.12 171.29,183.96 170.48,188.00
             170.48,188.00 154.66,188.00 154.66,188.00 Z
           M 91.78,279.91
           C 91.34,278.88 90.65,278.14 89.70,277.69
             88.75,277.23 87.76,277.00 86.72,277.00
             84.76,277.00 83.05,277.91 81.58,279.72
             80.11,281.52 79.08,283.91 78.48,286.89
             77.86,290.00 77.91,292.29 78.66,293.78
             79.41,295.26 80.75,296.00 82.70,296.00
             84.14,296.00 85.44,295.55 86.59,294.64
             87.75,293.73 88.77,292.38 89.66,290.58
             89.66,290.58 91.78,279.91 91.78,279.91 Z
           M 81.73,298.00
           C 79.39,298.00 77.55,297.07 76.23,295.20
             74.91,293.34 74.61,290.61 75.34,287.00
             76.01,283.66 77.45,280.99 79.67,279.00
             81.89,277.00 84.23,276.00 86.70,276.00
             87.74,276.00 88.77,276.23 89.80,276.67
             90.82,277.12 91.56,277.80 92.03,278.70
             92.03,278.70 94.11,268.31 94.11,268.31
             94.27,267.54 94.25,266.96 94.06,266.58
             93.88,266.20 93.46,266.00 92.81,266.00
             92.81,266.00 91.25,266.00 91.25,266.00
             91.25,266.00 91.45,265.00 91.45,265.00
             91.45,265.00 93.59,265.00 93.59,265.00
             94.25,265.00 94.94,264.84 95.66,264.50
             96.38,264.17 97.12,263.67 97.91,263.00
             97.91,263.00 91.66,294.22 91.66,294.22
             91.53,294.88 91.57,295.34 91.77,295.61
             91.97,295.87 92.34,296.00 92.86,296.00
             92.86,296.00 94.23,296.00 94.23,296.00
             94.23,296.00 94.05,297.00 94.05,297.00
             94.05,297.00 92.88,297.00 92.88,297.00
             92.35,297.00 91.71,297.09 90.95,297.25
             90.20,297.42 89.41,297.67 88.56,298.00
             88.56,298.00 88.17,298.00 88.17,298.00
             88.17,298.00 88.94,294.14 88.94,294.14
             88.06,295.30 87.00,296.23 85.75,296.94
             84.50,297.65 83.16,298.00 81.73,298.00 Z
           M 110.19,278.80
           C 110.29,278.27 110.24,277.84 110.05,277.50
             109.86,277.17 109.44,277.00 108.80,277.00
             108.80,277.00 104.69,277.00 104.69,277.00
             104.69,277.00 104.88,276.00 104.88,276.00
             104.88,276.00 106.83,276.00 106.83,276.00
             108.00,276.00 109.13,275.93 110.20,275.80
             111.27,275.65 112.30,275.39 113.28,275.00
             113.28,275.00 113.67,275.00 113.67,275.00
             113.67,275.00 109.59,295.44 109.59,295.44
             109.49,295.96 109.57,296.35 109.84,296.61
             110.12,296.87 110.52,297.00 111.05,297.00
             111.05,297.00 115.14,297.00 115.14,297.00
             115.14,297.00 114.94,298.00 114.94,298.00
             114.94,298.00 100.48,298.00 100.48,298.00
             100.48,298.00 100.69,297.00 100.69,297.00
             100.69,297.00 104.80,297.00 104.80,297.00
             105.44,297.00 105.92,296.87 106.23,296.61
             106.55,296.34 106.75,295.94 106.86,295.41
             106.86,295.41 110.19,278.80 110.19,278.80 Z
           M 114.50,265.00
           C 115.14,265.00 115.68,265.23 116.11,265.70
             116.54,266.17 116.68,266.74 116.55,267.41
             116.42,268.07 116.04,268.67 115.41,269.20
             114.78,269.73 114.14,270.00 113.50,270.00
             112.84,270.00 112.30,269.73 111.89,269.20
             111.48,268.67 111.34,268.07 111.47,267.41
             111.60,266.74 111.98,266.17 112.59,265.70
             113.21,265.23 113.84,265.00 114.50,265.00 Z
           M 134.03,265.00
           C 135.20,265.00 136.33,264.84 137.44,264.50
             138.55,264.17 139.63,263.67 140.69,263.00
             140.69,263.00 141.08,263.00 141.08,263.00
             141.08,263.00 134.59,295.42 134.59,295.42
             134.49,295.95 134.57,296.35 134.84,296.61
             135.12,296.87 135.52,297.00 136.05,297.00
             136.05,297.00 140.53,297.00 140.53,297.00
             140.53,297.00 140.33,298.00 140.33,298.00
             140.33,298.00 125.09,298.00 125.09,298.00
             125.09,298.00 125.30,297.00 125.30,297.00
             125.30,297.00 129.80,297.00 129.80,297.00
             130.44,297.00 130.92,296.87 131.23,296.61
             131.55,296.35 131.75,295.96 131.86,295.44
             131.86,295.44 137.42,267.56 137.42,267.56
             137.52,267.04 137.47,266.65 137.27,266.39
             137.05,266.13 136.62,266.00 135.97,266.00
             135.97,266.00 131.67,266.00 131.67,266.00
             131.67,266.00 131.88,265.00 131.88,265.00
             131.88,265.00 134.03,265.00 134.03,265.00 Z
           M 160.19,278.80
           C 160.29,278.27 160.24,277.84 160.05,277.50
             159.86,277.17 159.44,277.00 158.80,277.00
             158.80,277.00 154.69,277.00 154.69,277.00
             154.69,277.00 154.88,276.00 154.88,276.00
             154.88,276.00 156.83,276.00 156.83,276.00
             158.00,276.00 159.13,275.93 160.20,275.80
             161.27,275.65 162.30,275.39 163.28,275.00
             163.28,275.00 163.67,275.00 163.67,275.00
             163.67,275.00 159.59,295.44 159.59,295.44
             159.49,295.96 159.57,296.35 159.84,296.61
             160.12,296.87 160.52,297.00 161.05,297.00
             161.05,297.00 165.14,297.00 165.14,297.00
             165.14,297.00 164.94,298.00 164.94,298.00
             164.94,298.00 150.48,298.00 150.48,298.00
             150.48,298.00 150.69,297.00 150.69,297.00
             150.69,297.00 154.80,297.00 154.80,297.00
             155.44,297.00 155.92,296.87 156.23,296.61
             156.55,296.34 156.75,295.94 156.86,295.41
             156.86,295.41 160.19,278.80 160.19,278.80 Z
           M 164.50,265.00
           C 165.14,265.00 165.68,265.23 166.11,265.70
             166.54,266.17 166.68,266.74 166.55,267.41
             166.42,268.07 166.04,268.67 165.41,269.20
             164.78,269.73 164.14,270.00 163.50,270.00
             162.84,270.00 162.30,269.73 161.89,269.20
             161.48,268.67 161.34,268.07 161.47,267.41
             161.60,266.74 161.98,266.17 162.59,265.70
             163.21,265.23 163.84,265.00 164.50,265.00 Z" />
</svg>
