<?xml version="1.0" encoding="UTF-8" standalone="no" ?>
<!DOCTYPE svg PUBLIC "-//W3C//DTD SVG 1.1//EN" "http://www.w3.org/Graphics/SVG/1.1/DTD/svg11.dtd">
<svg xmlns="http://www.w3.org/2000/svg" xmlns:xlink="http://www.w3.org/1999/xlink" version="1.1" width="1080" height="1080" viewBox="0 0 1080 1080" xml:space="preserve">
<desc>Created with Fabric.js 5.2.4</desc>
<defs>
</defs>
<g transform="matrix(1 0 0 1 540 540)" id="b360c453-fc59-4395-b3ac-b5cce6f43717"  >
<rect style="stroke: none; stroke-width: 1; stroke-dasharray: none; stroke-linecap: butt; stroke-dashoffset: 0; stroke-linejoin: miter; stroke-miterlimit: 4; fill: rgb(255,255,255); fill-rule: nonzero; opacity: 1; visibility: hidden;" vector-effect="non-scaling-stroke"  x="-540" y="-540" rx="0" ry="0" width="1080" height="1080" />
</g>
<g transform="matrix(1 0 0 1 540 540)" id="479d2be7-8304-49d7-a5bf-bde52344c8fa"  >
</g>
<g transform="matrix(1 0 0 1 540.5 540.5)" id="Tracciato #5"  >
<path style="stroke: rgb(205,173,233); stroke-width: 1; stroke-dasharray: none; stroke-linecap: butt; stroke-dashoffset: 0; stroke-linejoin: miter; stroke-miterlimit: 4; fill: rgb(191,146,225); fill-rule: nonzero; opacity: 1;" vector-effect="non-scaling-stroke"  transform=" translate(-149.43, -154.5)" d="M 35.05 99 C 25.57 99 18.03 95.45 12.44 88.33 C 6.85 81.2 4.06 70.01 4.06 54.75 C 4.06 41.87 7.02 31.19 12.95 22.72 C 18.88 14.24 26.92 10 37.08 10 C 39.44 10 41.8 10.43 44.17 11.28 C 46.55 12.12 48.58 12.55 50.28 12.55 C 51.63 12.55 52.73 12.38 53.58 12.05 C 54.42 11.7 55.18 11.02 55.86 10 C 55.86 10 60.44 32 60.44 32 C 60.44 32 57.39 33 57.39 33 C 55.36 26.5 52.65 21.54 49.27 18.12 C 45.88 14.71 41.48 13 36.06 13 C 28.96 13 23.46 16.95 19.56 24.86 C 15.66 32.77 13.72 42.57 13.72 54.27 C 13.72 66.98 15.41 76.95 18.8 84.17 C 22.18 91.39 27.77 95 35.56 95 C 40.98 95 45.63 93 49.52 88.98 C 53.41 84.96 56.04 79.64 57.39 73 C 57.39 73 60.44 74.53 60.44 74.53 C 58.74 81.67 55.6 87.53 51.03 92.12 C 46.47 96.71 41.14 99 35.05 99 Z M 14.22 153.98 C 14.22 168.67 15.99 179.35 19.55 186.02 C 23.11 192.67 27.6 196 33.02 196 C 38.77 196 43.33 192.84 46.72 186.53 C 50.1 180.21 51.8 169.36 51.8 153.98 C 51.8 141.7 50.36 131.79 47.48 124.28 C 44.61 116.76 39.79 113 33.02 113 C 27.25 113 22.68 116.42 19.3 123.25 C 15.91 130.09 14.22 140.33 14.22 153.98 Z M 61.45 154.25 C 61.45 168.15 58.74 179.08 53.33 187.05 C 47.91 195.02 41.14 199 33.02 199 C 25.23 199 18.55 194.93 12.95 186.8 C 7.37 178.66 4.58 167.81 4.58 154.25 C 4.58 141.02 7.2 130.34 12.45 122.2 C 17.7 114.07 24.55 110 33.02 110 C 41.82 110 48.75 114.32 53.83 122.97 C 58.91 131.62 61.45 142.04 61.45 154.25 Z M 4.06 215 C 4.06 215 4.06 212 4.06 212 C 4.06 212 53.83 212 53.83 212 C 53.83 212 59.42 229 59.42 229 C 59.42 229 56.88 230 56.88 230 C 54.16 225 51.29 221.25 48.23 218.75 C 45.19 216.25 41.81 215 38.09 215 C 38.09 215 23.88 215 23.88 215 C 22.52 215 21.41 215.34 20.56 216.03 C 19.72 216.72 19.3 217.75 19.3 219.11 C 19.3 219.11 19.3 251 19.3 251 C 19.3 251 34.03 251 34.03 251 C 37.41 251 39.87 250.17 41.39 248.5 C 42.91 246.84 43.67 244.34 43.67 241 C 43.67 241 43.67 238 43.67 238 C 43.67 238 46.72 238 46.72 238 C 46.72 238 46.72 267 46.72 267 C 46.72 267 43.67 267 43.67 267 C 43.67 267 43.67 265.08 43.67 265.08 C 43.67 261.55 42.91 258.82 41.39 256.89 C 39.87 254.96 37.41 254 34.03 254 C 34.03 254 19.3 254 19.3 254 C 19.3 254 19.3 291.95 19.3 291.95 C 19.3 293.3 19.72 294.31 20.56 294.98 C 21.41 295.66 22.52 296 23.88 296 C 23.88 296 37.08 296 37.08 296 C 42.15 296 46.46 294.54 50.02 291.62 C 53.58 288.71 56.38 284.17 58.41 278 C 58.41 278 60.94 279.03 60.94 279.03 C 60.94 279.03 55.36 299 55.36 299 C 55.36 299 3.56 299 3.56 299 C 3.56 299 3.56 296 3.56 296 C 3.56 296 6.61 296 6.61 296 C 8.3 296 9.48 295.66 10.16 294.98 C 10.83 294.31 11.17 293.29 11.17 291.92 C 11.17 291.92 11.17 219.08 11.17 219.08 C 11.17 217.71 10.83 216.7 10.16 216.02 C 9.48 215.34 8.3 215 6.61 215 C 6.61 215 4.06 215 4.06 215 Z M 91.34 87 C 92.07 84.06 92.04 81.83 91.23 80.3 C 90.43 78.77 89.12 78 87.3 78 C 85.35 78 83.59 78.8 82.03 80.41 C 80.47 82 79.41 84.2 78.84 87 C 78.84 87 91.34 87 91.34 87 Z M 78.66 88 C 78 91.24 78.22 93.55 79.31 94.94 C 80.41 96.31 82.05 97 84.27 97 C 85.96 97 87.49 96.52 88.86 95.56 C 90.22 94.59 91.3 93.41 92.11 92 C 92.11 92 93 92.41 93 92.41 C 92.31 93.92 91.14 95.4 89.48 96.84 C 87.83 98.28 85.83 99 83.48 99 C 80.49 99 78.24 98.05 76.73 96.16 C 75.22 94.26 74.82 91.54 75.53 88 C 76.16 84.84 77.62 82.23 79.92 80.14 C 82.23 78.05 84.75 77 87.48 77 C 89.96 77 91.95 77.82 93.44 79.47 C 94.94 81.12 95.29 83.96 94.48 88 C 94.48 88 78.66 88 78.66 88 Z M 96.77 99 C 96.77 99 96.97 98 96.97 98 C 96.97 98 97.95 98 97.95 98 C 98.6 98 99.08 97.87 99.39 97.61 C 99.7 97.34 99.91 96.94 100.02 96.41 C 100.02 96.41 103.45 79.2 103.45 79.2 C 103.54 78.8 103.53 78.5 103.44 78.3 C 103.35 78.1 103.12 78 102.73 78 C 102.73 78 101.17 78 101.17 78 C 101.17 78 101.36 77 101.36 77 C 101.36 77 102.72 77 102.72 77 C 103.38 77 104.01 76.93 104.62 76.8 C 105.24 76.66 105.84 76.4 106.44 76 C 106.44 76 106.83 76 106.83 76 C 106.83 76 105.86 80.86 105.86 80.86 C 107.3 79.57 108.66 78.61 109.95 77.97 C 111.25 77.32 112.55 77 113.86 77 C 116.07 77 117.58 77.59 118.39 78.75 C 119.2 79.92 119.38 81.67 118.91 84 C 118.91 84 116.42 96.44 116.42 96.44 C 116.32 96.96 116.4 97.35 116.67 97.61 C 116.95 97.87 117.35 98 117.88 98 C 117.88 98 118.84 98 118.84 98 C 118.84 98 118.64 99 118.64 99 C 118.64 99 110.44 99 110.44 99 C 110.44 99 110.64 98 110.64 98 C 110.64 98 111.62 98 111.62 98 C 112.27 98 112.74 97.88 113.05 97.62 C 113.36 97.37 113.57 96.98 113.67 96.48 C 113.67 96.48 116.22 83.75 116.22 83.75 C 116.52 82.23 116.43 81.06 115.94 80.23 C 115.46 79.41 114.57 79 113.27 79 C 112.1 79 110.82 79.38 109.42 80.14 C 108.04 80.9 106.68 81.98 105.36 83.38 C 105.36 83.38 102.73 96.48 102.73 96.48 C 102.63 96.98 102.72 97.37 103 97.62 C 103.28 97.88 103.68 98 104.2 98 C 104.2 98 105.17 98 105.17 98 C 105.17 98 104.97 99 104.97 99 C 104.97 99 96.77 99 96.77 99 Z M 128.31 82.92 C 128.69 81.02 129.72 79.55 131.42 78.53 C 133.12 77.51 135.01 77 137.09 77 C 138.27 77 139.35 77.17 140.33 77.5 C 141.3 77.82 141.99 77.98 142.38 77.98 C 142.77 77.98 143.11 77.92 143.39 77.8 C 143.68 77.66 144.05 77.4 144.52 77 C 144.52 77 143.94 83.8 143.94 83.8 C 143.94 83.8 142.73 84 142.73 84 C 142.58 82.15 141.99 80.68 140.97 79.61 C 139.96 78.54 138.67 78 137.11 78 C 135.41 78 134.01 78.33 132.91 78.98 C 131.8 79.63 131.13 80.54 130.89 81.7 C 130.68 82.75 130.75 83.56 131.09 84.16 C 131.44 84.74 132.16 85.16 133.28 85.42 C 134.1 85.81 135.16 86.23 136.44 86.67 C 137.72 87.11 138.89 87.59 139.95 88.09 C 140.9 88.61 141.65 89.28 142.2 90.11 C 142.75 90.93 142.93 91.86 142.72 92.88 C 142.33 94.79 141.35 96.29 139.77 97.38 C 138.19 98.46 136.1 99 133.5 99 C 131.8 99 130.56 98.84 129.78 98.52 C 129 98.18 128.35 98.02 127.83 98.02 C 127.43 98.02 126.99 98.12 126.5 98.31 C 126.01 98.51 125.48 98.74 124.91 99 C 124.91 99 125.67 92.19 125.67 92.19 C 125.67 92.19 126.88 92 126.88 92 C 126.88 94 127.43 95.5 128.53 96.5 C 129.63 97.5 131.36 98 133.7 98 C 135.52 98 136.99 97.68 138.09 97.03 C 139.2 96.38 139.88 95.4 140.14 94.09 C 140.32 93.18 140.2 92.43 139.8 91.84 C 139.4 91.26 138.97 90.84 138.5 90.58 C 137.29 90.07 135.96 89.53 134.52 88.95 C 133.07 88.38 131.8 87.84 130.73 87.33 C 129.67 86.82 128.95 86.18 128.58 85.42 C 128.21 84.65 128.12 83.82 128.31 82.92 Z M 160.19 79.8 C 160.29 79.27 160.24 78.84 160.05 78.5 C 159.86 78.17 159.44 78 158.8 78 C 158.8 78 154.69 78 154.69 78 C 154.69 78 154.88 77 154.88 77 C 154.88 77 156.83 77 156.83 77 C 158 77 159.13 76.93 160.2 76.8 C 161.27 76.65 162.3 76.39 163.28 76 C 163.28 76 163.67 76 163.67 76 C 163.67 76 159.59 96.44 159.59 96.44 C 159.49 96.96 159.57 97.35 159.84 97.61 C 160.12 97.87 160.52 98 161.05 98 C 161.05 98 165.14 98 165.14 98 C 165.14 98 164.94 99 164.94 99 C 164.94 99 150.48 99 150.48 99 C 150.48 99 150.69 98 150.69 98 C 150.69 98 154.8 98 154.8 98 C 155.44 98 155.92 97.87 156.23 97.61 C 156.55 97.34 156.75 96.94 156.86 96.41 C 156.86 96.41 160.19 79.8 160.19 79.8 Z M 164.5 66 C 165.14 66 165.68 66.23 166.11 66.7 C 166.54 67.17 166.68 67.74 166.55 68.41 C 166.42 69.07 166.04 69.67 165.41 70.2 C 164.78 70.73 164.14 71 163.5 71 C 162.84 71 162.3 70.73 161.89 70.2 C 161.48 69.67 161.34 69.07 161.47 68.41 C 161.6 67.74 161.98 67.17 162.59 66.7 C 163.21 66.23 163.84 66 164.5 66 Z M 175.97 77 C 176.61 77 177.28 76.92 177.97 76.75 C 178.66 76.59 179.23 76.34 179.69 76 C 179.69 76 180.08 76 180.08 76 C 180.08 76 179.3 79.89 179.3 79.89 C 180.16 78.86 181.02 78.12 181.89 77.67 C 182.77 77.23 183.66 77 184.56 77 C 185.74 77 186.61 77.23 187.17 77.67 C 187.73 78.12 187.97 78.86 187.89 79.89 C 188.75 78.86 189.65 78.12 190.58 77.67 C 191.52 77.23 192.44 77 193.36 77 C 194.92 77 195.91 77.45 196.31 78.36 C 196.72 79.27 196.77 80.43 196.48 81.86 C 196.48 81.86 193.53 96.64 193.53 96.64 C 193.43 97.16 193.48 97.52 193.7 97.72 C 193.93 97.91 194.3 98 194.83 98 C 194.83 98 195.22 98 195.22 98 C 195.22 98 195.02 99 195.02 99 C 195.02 99 188.38 99 188.38 99 C 188.38 99 188.58 98 188.58 98 C 188.58 98 188.97 98 188.97 98 C 189.49 98 189.89 97.91 190.19 97.72 C 190.49 97.53 190.69 97.18 190.8 96.67 C 190.8 96.67 193.64 82.42 193.64 82.42 C 193.92 81.03 193.94 80.11 193.7 79.67 C 193.46 79.23 193.02 79 192.38 79 C 191.46 79 190.58 79.32 189.73 79.95 C 188.89 80.59 188.16 81.48 187.55 82.61 C 187.55 82.61 184.73 96.67 184.73 96.67 C 184.63 97.18 184.69 97.53 184.91 97.72 C 185.13 97.91 185.51 98 186.03 98 C 186.03 98 186.42 98 186.42 98 C 186.42 98 186.22 99 186.22 99 C 186.22 99 179.58 99 179.58 99 C 179.58 99 179.78 98 179.78 98 C 179.78 98 180.17 98 180.17 98 C 180.69 98 181.1 97.91 181.39 97.72 C 181.69 97.53 181.89 97.18 182 96.67 C 182 96.67 184.84 82.42 184.84 82.42 C 185.07 81.28 185.11 80.42 184.97 79.86 C 184.82 79.29 184.36 79 183.58 79 C 182.67 79 181.79 79.32 180.94 79.95 C 180.09 80.59 179.35 81.54 178.72 82.8 C 178.72 82.8 175.95 96.67 175.95 96.67 C 175.85 97.18 175.91 97.53 176.12 97.72 C 176.35 97.91 176.73 98 177.25 98 C 177.25 98 177.64 98 177.64 98 C 177.64 98 177.44 99 177.44 99 C 177.44 99 170.8 99 170.8 99 C 170.8 99 171 98 171 98 C 171 98 171.39 98 171.39 98 C 171.91 98 172.32 97.9 172.61 97.7 C 172.91 97.51 173.12 97.14 173.23 96.59 C 173.23 96.59 176.7 79.2 176.7 79.2 C 176.79 78.8 176.78 78.5 176.69 78.3 C 176.6 78.1 176.36 78 175.97 78 C 175.97 78 175.19 78 175.19 78 C 175.19 78 175.38 77 175.38 77 C 175.38 77 175.97 77 175.97 77 Z M 216.34 87 C 217.07 84.06 217.04 81.83 216.23 80.3 C 215.43 78.77 214.12 78 212.3 78 C 210.35 78 208.59 78.8 207.03 80.41 C 205.47 82 204.41 84.2 203.84 87 C 203.84 87 216.34 87 216.34 87 Z M 203.66 88 C 203 91.24 203.22 93.55 204.31 94.94 C 205.41 96.31 207.05 97 209.27 97 C 210.96 97 212.49 96.52 213.86 95.56 C 215.22 94.59 216.3 93.41 217.11 92 C 217.11 92 218 92.41 218 92.41 C 217.31 93.92 216.14 95.4 214.48 96.84 C 212.83 98.28 210.83 99 208.48 99 C 205.49 99 203.24 98.05 201.73 96.16 C 200.22 94.26 199.82 91.54 200.53 88 C 201.16 84.84 202.62 82.23 204.92 80.14 C 207.23 78.05 209.75 77 212.48 77 C 214.96 77 216.95 77.82 218.44 79.47 C 219.94 81.12 220.29 83.96 219.48 88 C 219.48 88 203.66 88 203.66 88 Z M 221.77 99 C 221.77 99 221.97 98 221.97 98 C 221.97 98 222.95 98 222.95 98 C 223.6 98 224.08 97.87 224.39 97.61 C 224.7 97.34 224.91 96.94 225.02 96.41 C 225.02 96.41 228.45 79.2 228.45 79.2 C 228.54 78.8 228.53 78.5 228.44 78.3 C 228.35 78.1 228.12 78 227.73 78 C 227.73 78 226.17 78 226.17 78 C 226.17 78 226.36 77 226.36 77 C 226.36 77 227.72 77 227.72 77 C 228.38 77 229.01 76.93 229.62 76.8 C 230.24 76.66 230.84 76.4 231.44 76 C 231.44 76 231.83 76 231.83 76 C 231.83 76 230.86 80.86 230.86 80.86 C 232.3 79.57 233.66 78.61 234.95 77.97 C 236.25 77.32 237.55 77 238.86 77 C 241.07 77 242.58 77.59 243.39 78.75 C 244.2 79.92 244.38 81.67 243.91 84 C 243.91 84 241.42 96.44 241.42 96.44 C 241.32 96.96 241.4 97.35 241.67 97.61 C 241.95 97.87 242.35 98 242.88 98 C 242.88 98 243.84 98 243.84 98 C 243.84 98 243.64 99 243.64 99 C 243.64 99 235.44 99 235.44 99 C 235.44 99 235.64 98 235.64 98 C 235.64 98 236.62 98 236.62 98 C 237.27 98 237.74 97.88 238.05 97.62 C 238.36 97.37 238.57 96.98 238.67 96.48 C 238.67 96.48 241.22 83.75 241.22 83.75 C 241.52 82.23 241.43 81.06 240.94 80.23 C 240.46 79.41 239.57 79 238.27 79 C 237.1 79 235.82 79.38 234.42 80.14 C 233.04 80.9 231.68 81.98 230.36 83.38 C 230.36 83.38 227.73 96.48 227.73 96.48 C 227.63 96.98 227.72 97.37 228 97.62 C 228.28 97.88 228.68 98 229.2 98 C 229.2 98 230.17 98 230.17 98 C 230.17 98 229.97 99 229.97 99 C 229.97 99 221.77 99 221.77 99 Z M 258.25 92.34 C 257.88 94.16 257.96 95.39 258.48 96.03 C 259 96.68 259.91 97 261.22 97 C 262.52 97 263.65 96.57 264.61 95.7 C 265.57 94.84 266.33 93.61 266.91 92 C 266.91 92 267.81 92.41 267.81 92.41 C 267.16 94.34 266.16 95.92 264.81 97.16 C 263.46 98.39 261.87 99 260.05 99 C 258.1 99 256.75 98.41 256 97.23 C 255.26 96.06 255.14 94.23 255.64 91.73 C 255.64 91.73 258.39 78 258.39 78 C 258.39 78 252.53 78 252.53 78 C 252.53 78 252.72 77 252.72 77 C 252.72 77 254.28 77 254.28 77 C 255.84 77 257.22 76.49 258.41 75.47 C 259.59 74.44 260.54 72.83 261.23 70.64 C 261.23 70.64 261.75 69 261.75 69 C 261.75 69 262.92 69 262.92 69 C 262.92 69 261.31 77 261.31 77 C 261.31 77 269.12 77 269.12 77 C 269.12 77 268.94 78 268.94 78 C 268.94 78 261.12 78 261.12 78 C 261.12 78 258.25 92.34 258.25 92.34 Z M 295.06 88 C 294.43 91.16 292.92 93.78 290.55 95.88 C 288.18 97.96 285.57 99 282.7 99 C 279.71 99 277.48 97.93 276.02 95.78 C 274.55 93.62 274.13 91.03 274.75 88 C 275.3 85.22 276.75 82.7 279.09 80.42 C 281.44 78.14 284.1 77 287.09 77 C 290.22 77 292.46 78.14 293.83 80.42 C 295.2 82.7 295.61 85.22 295.06 88 Z M 277.83 88.19 C 277.16 91.52 277.35 93.99 278.41 95.59 C 279.46 97.2 280.96 98 282.91 98 C 285.12 98 287.02 97.14 288.59 95.41 C 290.18 93.68 291.27 91.27 291.89 88.19 C 292.55 84.86 292.38 82.32 291.36 80.59 C 290.35 78.87 288.86 78 286.91 78 C 285.08 78 283.28 78.87 281.5 80.59 C 279.72 82.32 278.49 84.86 277.83 88.19 Z M 78.98 205 C 78.98 205 80.36 205 80.36 205 C 80.36 205 80.16 206 80.16 206 C 80.16 206 71.17 206 71.17 206 C 71.17 206 71.38 205 71.38 205 C 71.38 205 72.55 205 72.55 205 C 73.19 205 73.67 204.86 73.98 204.59 C 74.3 204.33 74.52 203.88 74.66 203.22 C 74.66 203.22 79.34 179.78 79.34 179.78 C 79.45 179.26 79.4 178.84 79.2 178.5 C 79.02 178.17 78.6 178 77.95 178 C 77.95 178 76.78 178 76.78 178 C 76.78 178 76.97 177 76.97 177 C 76.97 177 78.72 177 78.72 177 C 79.38 177 80.01 176.93 80.62 176.8 C 81.24 176.66 81.84 176.4 82.44 176 C 82.44 176 82.83 176 82.83 176 C 82.83 176 81.86 180.86 81.86 180.86 C 83.04 179.57 84.24 178.61 85.47 177.97 C 86.7 177.32 87.96 177 89.27 177 C 91.87 177 93.84 177.87 95.19 179.61 C 96.54 181.34 96.84 184.07 96.09 187.81 C 95.38 191.41 93.91 194.17 91.7 196.11 C 89.49 198.04 87.16 199 84.69 199 C 83.25 199 82.09 198.78 81.2 198.33 C 80.32 197.87 79.5 197.2 78.77 196.3 C 78.77 196.3 77.39 203.22 77.39 203.22 C 77.25 203.88 77.35 204.33 77.69 204.59 C 78.03 204.86 78.46 205 78.98 205 Z M 79.2 194.16 C 79.6 195.44 80.22 196.4 81.06 197.05 C 81.91 197.68 82.99 198 84.3 198 C 86.12 198 87.84 197.2 89.45 195.61 C 91.08 194.01 92.22 191.54 92.89 188.22 C 93.5 185.15 93.48 182.84 92.81 181.31 C 92.14 179.77 90.83 179 88.88 179 C 87.71 179 86.47 179.36 85.16 180.06 C 83.84 180.76 82.57 181.88 81.34 183.42 C 81.34 183.42 79.2 194.16 79.2 194.16 Z M 117.34 187 C 118.07 184.06 118.04 181.83 117.23 180.3 C 116.43 178.77 115.12 178 113.3 178 C 111.35 178 109.59 178.8 108.03 180.41 C 106.47 182 105.41 184.2 104.84 187 C 104.84 187 117.34 187 117.34 187 Z M 104.66 188 C 104 191.24 104.22 193.55 105.31 194.94 C 106.41 196.31 108.05 197 110.27 197 C 111.96 197 113.49 196.52 114.86 195.56 C 116.22 194.59 117.3 193.41 118.11 192 C 118.11 192 119 192.41 119 192.41 C 118.31 193.92 117.14 195.4 115.48 196.84 C 113.83 198.28 111.83 199 109.48 199 C 106.49 199 104.24 198.05 102.73 196.16 C 101.22 194.26 100.82 191.54 101.53 188 C 102.16 184.84 103.62 182.23 105.92 180.14 C 108.23 178.05 110.75 177 113.48 177 C 115.96 177 117.95 177.82 119.44 179.47 C 120.94 181.12 121.29 183.96 120.48 188 C 120.48 188 104.66 188 104.66 188 Z M 134.3 183.38 C 136 181.31 137.72 179.73 139.44 178.64 C 141.16 177.55 142.8 177 144.36 177 C 145.66 177 146.61 177.29 147.2 177.88 C 147.8 178.45 148.03 179.12 147.88 179.89 C 147.75 180.53 147.48 181.04 147.08 181.42 C 146.67 181.81 146.14 182 145.5 182 C 144.84 182 144.38 181.84 144.12 181.5 C 143.88 181.17 143.87 180.73 144.11 180.17 C 144.17 179.84 144.16 179.56 144.08 179.34 C 143.99 179.12 143.63 179 142.98 179 C 141.94 179 140.54 179.64 138.78 180.91 C 137.03 182.17 135.34 183.94 133.72 186.22 C 133.72 186.22 131.67 196.48 131.67 196.48 C 131.57 196.98 131.65 197.37 131.92 197.62 C 132.2 197.88 132.6 198 133.12 198 C 133.12 198 137.42 198 137.42 198 C 137.42 198 137.22 199 137.22 199 C 137.22 199 122.77 199 122.77 199 C 122.77 199 122.97 198 122.97 198 C 122.97 198 126.88 198 126.88 198 C 127.53 198 128.02 197.87 128.33 197.61 C 128.64 197.34 128.85 196.94 128.95 196.41 C 128.95 196.41 132.28 179.8 132.28 179.8 C 132.38 179.27 132.34 178.84 132.14 178.5 C 131.95 178.17 131.54 178 130.89 178 C 130.89 178 127.17 178 127.17 178 C 127.17 178 127.36 177 127.36 177 C 127.36 177 128.92 177 128.92 177 C 129.84 177 130.93 176.9 132.2 176.7 C 133.48 176.51 134.48 176.27 135.19 176 C 135.19 176 135.77 176 135.77 176 C 135.77 176 134.3 183.38 134.3 183.38 Z M 167.34 187 C 168.07 184.06 168.04 181.83 167.23 180.3 C 166.43 178.77 165.12 178 163.3 178 C 161.35 178 159.59 178.8 158.03 180.41 C 156.47 182 155.41 184.2 154.84 187 C 154.84 187 167.34 187 167.34 187 Z M 154.66 188 C 154 191.24 154.22 193.55 155.31 194.94 C 156.41 196.31 158.05 197 160.27 197 C 161.96 197 163.49 196.52 164.86 195.56 C 166.22 194.59 167.3 193.41 168.11 192 C 168.11 192 169 192.41 169 192.41 C 168.31 193.92 167.14 195.4 165.48 196.84 C 163.83 198.28 161.83 199 159.48 199 C 156.49 199 154.24 198.05 152.73 196.16 C 151.22 194.26 150.82 191.54 151.53 188 C 152.16 184.84 153.62 182.23 155.92 180.14 C 158.23 178.05 160.75 177 163.48 177 C 165.96 177 167.95 177.82 169.44 179.47 C 170.94 181.12 171.29 183.96 170.48 188 C 170.48 188 154.66 188 154.66 188 Z M 91.78 279.91 C 91.34 278.88 90.65 278.14 89.7 277.69 C 88.75 277.23 87.76 277 86.72 277 C 84.76 277 83.05 277.91 81.58 279.72 C 80.11 281.52 79.08 283.91 78.48 286.89 C 77.86 290 77.91 292.29 78.66 293.78 C 79.41 295.26 80.75 296 82.7 296 C 84.14 296 85.44 295.55 86.59 294.64 C 87.75 293.73 88.77 292.38 89.66 290.58 C 89.66 290.58 91.78 279.91 91.78 279.91 Z M 81.73 298 C 79.39 298 77.55 297.07 76.23 295.2 C 74.91 293.34 74.61 290.61 75.34 287 C 76.01 283.66 77.45 280.99 79.67 279 C 81.89 277 84.23 276 86.7 276 C 87.74 276 88.77 276.23 89.8 276.67 C 90.82 277.12 91.56 277.8 92.03 278.7 C 92.03 278.7 94.11 268.31 94.11 268.31 C 94.27 267.54 94.25 266.96 94.06 266.58 C 93.88 266.2 93.46 266 92.81 266 C 92.81 266 91.25 266 91.25 266 C 91.25 266 91.45 265 91.45 265 C 91.45 265 93.59 265 93.59 265 C 94.25 265 94.94 264.84 95.66 264.5 C 96.38 264.17 97.12 263.67 97.91 263 C 97.91 263 91.66 294.22 91.66 294.22 C 91.53 294.88 91.57 295.34 91.77 295.61 C 91.97 295.87 92.34 296 92.86 296 C 92.86 296 94.23 296 94.23 296 C 94.23 296 94.05 297 94.05 297 C 94.05 297 92.88 297 92.88 297 C 92.35 297 91.71 297.09 90.95 297.25 C 90.2 297.42 89.41 297.67 88.56 298 C 88.56 298 88.17 298 88.17 298 C 88.17 298 88.94 294.14 88.94 294.14 C 88.06 295.3 87 296.23 85.75 296.94 C 84.5 297.65 83.16 298 81.73 298 Z M 110.19 278.8 C 110.29 278.27 110.24 277.84 110.05 277.5 C 109.86 277.17 109.44 277 108.8 277 C 108.8 277 104.69 277 104.69 277 C 104.69 277 104.88 276 104.88 276 C 104.88 276 106.83 276 106.83 276 C 108 276 109.13 275.93 110.2 275.8 C 111.27 275.65 112.3 275.39 113.28 275 C 113.28 275 113.67 275 113.67 275 C 113.67 275 109.59 295.44 109.59 295.44 C 109.49 295.96 109.57 296.35 109.84 296.61 C 110.12 296.87 110.52 297 111.05 297 C 111.05 297 115.14 297 115.14 297 C 115.14 297 114.94 298 114.94 298 C 114.94 298 100.48 298 100.48 298 C 100.48 298 100.69 297 100.69 297 C 100.69 297 104.8 297 104.8 297 C 105.44 297 105.92 296.87 106.23 296.61 C 106.55 296.34 106.75 295.94 106.86 295.41 C 106.86 295.41 110.19 278.8 110.19 278.8 Z M 114.5 265 C 115.14 265 115.68 265.23 116.11 265.7 C 116.54 266.17 116.68 266.74 116.55 267.41 C 116.42 268.07 116.04 268.67 115.41 269.2 C 114.78 269.73 114.14 270 113.5 270 C 112.84 270 112.3 269.73 111.89 269.2 C 111.48 268.67 111.34 268.07 111.47 267.41 C 111.6 266.74 111.98 266.17 112.59 265.7 C 113.21 265.23 113.84 265 114.5 265 Z M 134.03 265 C 135.2 265 136.33 264.84 137.44 264.5 C 138.55 264.17 139.63 263.67 140.69 263 C 140.69 263 141.08 263 141.08 263 C 141.08 263 134.59 295.42 134.59 295.42 C 134.49 295.95 134.57 296.35 134.84 296.61 C 135.12 296.87 135.52 297 136.05 297 C 136.05 297 140.53 297 140.53 297 C 140.53 297 140.33 298 140.33 298 C 140.33 298 125.09 298 125.09 298 C 125.09 298 125.3 297 125.3 297 C 125.3 297 129.8 297 129.8 297 C 130.44 297 130.92 296.87 131.23 296.61 C 131.55 296.35 131.75 295.96 131.86 295.44 C 131.86 295.44 137.42 267.56 137.42 267.56 C 137.52 267.04 137.47 266.65 137.27 266.39 C 137.05 266.13 136.62 266 135.97 266 C 135.97 266 131.67 266 131.67 266 C 131.67 266 131.88 265 131.88 265 C 131.88 265 134.03 265 134.03 265 Z M 160.19 278.8 C 160.29 278.27 160.24 277.84 160.05 277.5 C 159.86 277.17 159.44 277 158.8 277 C 158.8 277 154.69 277 154.69 277 C 154.69 277 154.88 276 154.88 276 C 154.88 276 156.83 276 156.83 276 C 158 276 159.13 275.93 160.2 275.8 C 161.27 275.65 162.3 275.39 163.28 275 C 163.28 275 163.67 275 163.67 275 C 163.67 275 159.59 295.44 159.59 295.44 C 159.49 295.96 159.57 296.35 159.84 296.61 C 160.12 296.87 160.52 297 161.05 297 C 161.05 297 165.14 297 165.14 297 C 165.14 297 164.94 298 164.94 298 C 164.94 298 150.48 298 150.48 298 C 150.48 298 150.69 297 150.69 297 C 150.69 297 154.8 297 154.8 297 C 155.44 297 155.92 296.87 156.23 296.61 C 156.55 296.34 156.75 295.94 156.86 295.41 C 156.86 295.41 160.19 278.8 160.19 278.8 Z M 164.5 265 C 165.14 265 165.68 265.23 166.11 265.7 C 166.54 266.17 166.68 266.74 166.55 267.41 C 166.42 268.07 166.04 268.67 165.41 269.2 C 164.78 269.73 164.14 270 163.5 270 C 162.84 270 162.3 269.73 161.89 269.2 C 161.48 268.67 161.34 268.07 161.47 267.41 C 161.6 266.74 161.98 266.17 162.59 265.7 C 163.21 265.23 163.84 265 164.5 265 Z" stroke-linecap="round" />
</g>
</svg>